<svg height="512pt" viewBox="0 0 512 512.00466" width="512pt" xmlns="http://www.w3.org/2000/svg"><path d="m502.1875 202.585938-25.769531-31.742188c-.84375-.761719-1.9375-1.1875-3.074219-1.195312h-18.089844c-2.355468 0-4.265625-1.910157-4.265625-4.269532v-18.089844c.015625-1.15625-.449219-2.269531-1.28125-3.070312l-17.066406-17.066406-4.523437-4.4375c-1.113282-.71875-2.488282-.90625-3.753907-.511719l-25.597656 8.53125c-1.527344.496094-3.203125.09375-4.335937-1.039063-1.136719-1.136718-1.539063-2.808593-1.042969-4.335937l5.804687-17.492187h.085938l2.644531-8.109376c.503906-1.566406.074219-3.289062-1.109375-4.4375l-16.214844-16.210937-.851562-.855469-16.214844-16.210937-12.03125-12.03125-5.972656-5.976563c-.792969-.71875-1.828125-1.117187-2.902344-1.109375h-18.089844c-2.355468 0-4.265625-1.910156-4.265625-4.265625v-18.089844c.015625-1.15625-.449219-2.269531-1.28125-3.074218l-13.566406-7.679688c-.589844-.613281-1.375-1.003906-2.21875-1.109375-1.472656-.40625-3.050781.09375-4.011719 1.28125l-153.941406 171.605469v.085938l170.496094 170.496093 10.664062 10.582031 171.605469-153.941406c.898437-.777344 1.429687-1.890625 1.460937-3.078125.035157-1.183593-.433593-2.328125-1.289062-3.152343zm0 0" fill="#e3e7f2"/><path d="m502.015625 208.816406-171.605469 153.941406-10.664062-10.582031-6.484375-6.484375h.082031l171.605469-153.941406c.898437-.777344 1.429687-1.894531 1.460937-3.078125.035156-1.1875-.433594-2.328125-1.289062-3.152344l-12.886719-15.871093h1.109375c1.136719.007812 2.230469.433593 3.074219 1.195312l25.769531 31.742188c.855469.824218 1.324219 1.96875 1.289062 3.152343-.03125 1.1875-.5625 2.300781-1.460937 3.078125zm0 0" fill="#d4e1f4"/><path d="m355.5 50.011719-5.972656-5.976563c.085937 0 .085937 0 .171875.085938zm0 0" fill="#e3e7f2"/><path d="m210.6875 315.480469-31.230469-31.230469-154.539062 135.253906c-17.335938 15.113282-21.425781 40.441406-9.726563 60.246094 1.980469 3.542969 4.449219 6.789062 7.335938 9.640625l.085937.085937c9.378907 9.367188 22.21875 14.425782 35.464844 13.972657s25.710937-6.375 34.425781-16.363281l135.253906-154.539063zm-164.007812 125.699219c6.695312-6.601563 17.449218-6.601563 24.148437 0 4.3125 4.3125 6 10.601562 4.417969 16.492187-1.578125 5.894531-6.179688 10.496094-12.074219 12.074219-5.890625 1.578125-12.179687-.105469-16.492187-4.417969-3.222657-3.191406-5.035157-7.539063-5.035157-12.074219s1.8125-8.882812 5.035157-12.074218zm0 0" fill="#7facfa"/><path d="m210.6875 315.480469-135.25 154.625c-15.152344 17.285156-40.460938 21.335937-60.246094 9.644531 1.980469 3.542969 4.449219 6.789062 7.335938 9.640625l.085937.085937c9.378907 9.367188 22.21875 14.425782 35.464844 13.972657s25.710937-6.375 34.425781-16.363281l135.253906-154.539063zm0 0" fill="#7facfa"/><path d="m336.386719 392.878906-12.117188 12.03125c-3.1875 3.234375-7.535156 5.058594-12.078125 5.058594-4.539062 0-8.886718-1.824219-12.074218-5.058594l-16.554688-16.554687c-.1875-.113281-.363281-.257813-.511719-.425781l-55.292969-55.382813-120.664062-120.660156c-3.234375-3.183594-5.054688-7.535157-5.054688-12.074219s1.820313-8.890625 5.054688-12.074219l12.03125-12.117187c6.492188-6.460938 16.921875-6.648438 23.640625-.425782l6.398437 6.398438h.085938v.085938l164.011719 164.011718h.082031l5.976562 5.972656v.085938l.425782.425781 10.664062 10.582031 5.976563 5.972657c3.203125 3.199219 5.003906 7.542969 5.003906 12.074219s-1.800781 8.875-5.003906 12.074218zm0 0" fill="#7facfa"/><path d="m484.949219 191.75-171.605469 153.941406h-.082031l-164.011719-164.011718v-.085938l153.941406-171.605469c.960938-1.1875 2.539063-1.6875 4.011719-1.28125.84375.105469 1.628906.496094 2.21875 1.109375l13.566406 7.679688c.832031.804687 1.296875 1.917968 1.28125 3.074218v18.089844c0 2.355469 1.910157 4.265625 4.265625 4.265625h18.089844c1.074219-.007812 2.109375.390625 2.902344 1.109375l5.972656 5.976563 12.03125 12.03125 16.214844 16.210937.851562.855469 16.214844 16.210937c1.183594 1.148438 1.613281 2.871094 1.109375 4.4375l-2.644531 8.109376h-.085938l-5.804687 17.492187c-.496094 1.527344-.09375 3.199219 1.042969 4.335937 1.132812 1.132813 2.808593 1.535157 4.335937 1.039063l25.597656-8.53125c1.265625-.394531 2.640625-.207031 3.753907.511719l4.523437 4.4375 17.066406 17.066406c.832031.800781 1.296875 1.914062 1.28125 3.070312v18.089844c0 2.359375 1.910157 4.269532 4.265625 4.269532h16.980469l12.886719 15.871093c.855468.824219 1.324218 1.964844 1.289062 3.152344-.03125 1.183594-.5625 2.300781-1.460937 3.078125zm0 0" fill="#e3e7f2"/><path d="m149.25 181.59375v.085938l-.085938-.085938zm0 0" fill="#e3e7f2"/><path d="m179.457031 284.25-154.539062 135.253906c-17.335938 15.113282-21.425781 40.441406-9.726563 60.246094 19.785156 11.691406 45.09375 7.640625 60.246094-9.644531l135.25-154.625zm-108.628906 181.078125c-3.203125 3.203125-7.546875 5.003906-12.074219 5.003906-4.53125 0-8.875-1.800781-12.074218-5.003906-3.222657-3.191406-5.035157-7.539063-5.035157-12.074219s1.8125-8.882812 5.035157-12.074218c6.695312-6.601563 17.449218-6.601563 24.148437 0 3.203125 3.199218 5.003906 7.542968 5.003906 12.074218 0 4.527344-1.800781 8.871094-5.003906 12.074219zm0 0" fill="#a4c2f7"/><path d="m319.320312 375.8125-12.117187 12.117188c-6.492187 6.460937-16.921875 6.648437-23.640625.425781-.1875-.113281-.363281-.257813-.511719-.425781l-55.292969-55.382813-120.664062-120.660156c-3.234375-3.183594-5.054688-7.535157-5.054688-12.074219s1.820313-8.890625 5.054688-12.074219l12.03125-12.117187c6.492188-6.460938 16.921875-6.648438 23.640625-.425782l6.398437 6.398438h.085938v.085938l164.011719 164.011718h.082031l5.976562 5.972656v.085938l.425782.425781c6.222656 6.71875 6.03125 17.148438-.425782 23.636719zm0 0" fill="#a4c2f7"/><g fill="#fff"><path d="m22.527344 489.390625.085937.085937c12.25 12.207032 30.148438 16.820313 46.773438 12.058594-7.988281-2.101562-15.289063-6.257812-21.171875-12.058594l-.085938-.085937c-2.886718-2.851563-5.359375-6.097656-7.339844-9.640625-11.699218-19.804688-7.609374-45.132812 9.730469-60.246094l154.539063-135.253906-72.363282-72.363281c-3.234374-3.183594-5.054687-7.535157-5.054687-12.074219s1.820313-8.890625 5.054687-12.074219l11.261719-11.351562-1.191406-1.191407c-6.71875-6.222656-17.148437-6.035156-23.640625.425782l-12.03125 12.117187c-3.234375 3.183594-5.054688 7.535157-5.054688 12.074219s1.820313 8.890625 5.054688 12.074219l72.363281 72.363281-154.539062 135.253906c-17.335938 15.113282-21.425781 40.441406-9.726563 60.246094 1.980469 3.542969 4.449219 6.789062 7.335938 9.640625zm0 0"/><path d="m168.363281 175.195312 6.402344 6.398438h.082031l147.515625-164.445312-12.941406-7.332032c-.589844-.613281-1.375-1.003906-2.21875-1.109375-1.472656-.40625-3.050781.09375-4.011719 1.28125l-144.28125 160.835938c3.535156.414062 6.847656 1.945312 9.453125 4.371093zm0 0"/><path d="m424.363281 122.203125-4.863281 1.621094-.511719 1.535156c-.496093 1.527344-.09375 3.199219 1.039063 4.335937 1.136718 1.132813 2.8125 1.535157 4.335937 1.039063l8.902344-2.96875-.625-.613281-4.523437-4.4375c-1.113282-.71875-2.488282-.90625-3.753907-.511719zm0 0"/><path d="m84.3125 436.230469c-4.511719-.019531-8.84375 1.761719-12.035156 4.949219-.273438.269531-.46875.59375-.722656.851562 5.597656 6.402344 5.597656 15.960938 0 22.367188.246093.289062.441406.613281.722656.894531 4.28125 4.441406 10.628906 6.222656 16.59375 4.664062 5.96875-1.554687 10.632812-6.210937 12.199218-12.179687 1.566407-5.964844-.207031-12.3125-4.640624-16.597656-3.203126-3.226563-7.574219-5.011719-12.117188-4.949219zm0 0"/><path d="m142.933594 175.996094 74.042968-82.601563 79.839844-89.082031 12.714844 11.394531-79.847656 89.078125-74.035156 82.601563zm0 0"/></g><path d="m187.195312 134.542969c.195313.507812.46875.984375.8125 1.40625.355469.449219.738282.871093 1.152344 1.261719 1.699219 1.488281 3.902344 2.273437 6.160156 2.203124 1.121094-.089843 2.210938-.394531 3.21875-.894531 3.082032-1.511719 4.992188-4.695312 4.871094-8.125-.09375-1.121093-.394531-2.210937-.894531-3.21875-.476563-1.007812-1.144531-1.914062-1.964844-2.667969-2.566406-2.332031-6.289062-2.875-9.417969-1.375-3.128906 1.496094-5.039062 4.738282-4.832031 8.199219l.265625 1.621094c.140625.554687.351563 1.089844.628906 1.589844zm0 0" fill="#428dff"/><path d="m414.78125 242.035156 18.109375-18.097656c3.230469-3.347656 3.1875-8.671875-.105469-11.964844-3.292968-3.289062-8.613281-3.335937-11.960937-.101562l-18.109375 18.097656c-2.21875 2.144531-3.109375 5.316406-2.328125 8.300781.78125 2.980469 3.113281 5.3125 6.09375 6.09375 2.984375.78125 6.15625-.109375 8.300781-2.328125zm0 0" fill="#428dff"/><path d="m288.070312 103.257812 12.066407-12.074218c2.21875-2.144532 3.105469-5.316406 2.324219-8.300782-.777344-2.980468-3.109376-5.3125-6.09375-6.09375-2.984376-.78125-6.15625.109376-8.296876 2.328126l-12.066406 12.074218c-2.21875 2.144532-3.109375 5.316406-2.328125 8.300782.78125 2.980468 3.113281 5.3125 6.09375 6.09375 2.984375.78125 6.15625-.109376 8.300781-2.328126zm0 0" fill="#428dff"/><path d="m16.566406 495.484375c10.597656 10.5625 24.945313 16.503906 39.910156 16.519531h1.851563c15.59375-.535156 30.273437-7.496094 40.566406-19.226562l129.253907-147.710938 65.953124 65.953125c10.011719 9.972657 26.199219 9.972657 36.207032 0l12.066406-12.066406c9.886719-9.851563 10.023438-25.816406.308594-35.839844l164.90625-147.839843c2.605468-2.261719 4.1875-5.488282 4.382812-8.933594.199219-3.449219-1.007812-6.832032-3.34375-9.378906l-25.597656-31.476563c-.1875-.222656-.382812-.4375-.589844-.640625-2.402344-2.394531-5.652344-3.742188-9.046875-3.753906h-13.875v-13.832032c.011719-3.394531-1.339843-6.652343-3.746093-9.046874l-21.007813-21.019532c-3.421875-3.449218-8.511719-4.652344-13.117187-3.097656l-17.507813 5.839844 5.835937-17.527344c1.558594-4.597656.359376-9.683594-3.089843-13.101562l-51.199219-51.199219c-2.402344-2.394531-5.652344-3.746094-9.046875-3.753907h-13.839844v-13.808593c.007813-3.394531-1.339843-6.648438-3.746093-9.042969-.539063-.542969-1.152344-1.007812-1.816407-1.382812l-12.878906-7.332032c-2.394531-1.878906-5.371094-2.863281-8.414063-2.78124975-3.5.13281275-6.796874 1.68749975-9.121093 4.30859375l-.085938.09375-85.453125 95.34375c-2.136718 2.253906-2.882812 5.492188-1.945312 8.453125.941406 2.964844 3.414062 5.179687 6.460937 5.789063 3.046875.609374 6.1875-.484376 8.191407-2.859376l83.210937-92.796874 8.53125 4.871093v15.4375c0 7.066407 5.730469 12.800781 12.800781 12.800781h16.339844l21.632812 21.640626-30.15625 30.171874c-2.21875 2.144532-3.109374 5.316407-2.328124 8.300782.78125 2.980468 3.113281 5.3125 6.09375 6.09375 2.984374.78125 6.15625-.109375 8.300781-2.328125l30.164062-30.175781 14.371094 14.371093-7.679687 23.117188c-1.550782 4.609375-.355469 9.695312 3.082031 13.132812 3.433593 3.4375 8.523437 4.632813 13.128906 3.082031l23.101563-7.679687 17.917968 17.917969v16.332031c0 7.070313 5.734375 12.800781 12.800782 12.800781h16.050781l22 27.007813-162.722657 145.734375-12.390624-12.382813 36.207031-36.207031c3.234375-3.347656 3.1875-8.671875-.101563-11.960938-3.292968-3.292968-8.613281-3.339843-11.964844-.105468l-36.207031 36.207031-18.105469-18.109375 60.347657-60.335938c3.234375-3.351562 3.1875-8.671874-.105469-11.964843-3.289062-3.289063-8.613281-3.335938-11.960938-.101563l-60.347656 60.335938-18.101562-18.148438 96.546875-96.496094c3.234375-3.347656 3.1875-8.667968-.101563-11.960937-3.292968-3.292969-8.613281-3.339844-11.964844-.105469l-96.542968 96.539063-24.140625-24.132813 84.476562-84.480468c3.234375-3.347657 3.1875-8.667969-.101562-11.960938-3.292969-3.292969-8.613281-3.339844-11.964844-.105469l-84.476563 84.480469-24.140624-24.140625 60.347656-60.339844c2.382812-2.097656 3.402344-5.34375 2.652344-8.429687-.753907-3.082032-3.15625-5.492188-6.238282-6.257813-3.082031-.761719-6.332031.246094-8.4375 2.621094l-60.347656 60.339844-12.382812-12.390625 17.382812-19.394532c2.082031-2.261718 2.785156-5.472656 1.839844-8.398437-.945313-2.925781-3.390625-5.117187-6.402344-5.738281-3.007812-.621094-6.121094.429687-8.144531 2.742187l-16.800781 18.773438c-10.160157-9.359375-25.84375-9.222657-35.84375.308593l-12.074219 12.066407c-4.800781 4.800781-7.5 11.3125-7.5 18.105469 0 6.789062 2.699219 13.300781 7.5 18.101562l65.957031 65.953125-147.730469 129.222656c-11.75 10.277344-18.714843 24.964844-19.2343748 40.566407-.5234372 15.601562 5.4492188 30.722656 16.4882818 41.761718zm96.519532-301.722656 12.074218-12.066407c3.375-3.226562 8.691406-3.226562 12.066406 0l193.082032 193.09375c3.328125 3.332032 3.328125 8.726563 0 12.058594l-12.066406 12.074219c-1.597657 1.601563-3.769532 2.5-6.035157 2.5s-4.4375-.898437-6.039062-2.5l-72.351563-72.398437-24.101562-24.097657v-.050781h-.050782l-24.171874-24.183594-72.40625-72.398437c-3.308594-3.328125-3.308594-8.703125 0-12.03125zm-82.578126 232.191406 148.566407-130.003906 12.457031 12.457031-52.496094 52.5c-2.21875 2.140625-3.109375 5.3125-2.328125 8.296875s3.113281 5.3125 6.09375 6.09375c2.984375.78125 6.15625-.109375 8.300781-2.324219l52.496094-52.5 12.460938 12.460938-130.007813 148.574218c-7.171875 8.191407-17.414062 13.042969-28.296875 13.40625-10.878906.363282-21.421875-3.800781-29.125-11.496093l-6.03125 6.03125 5.972656-6.074219c-7.695312-7.699219-11.859374-18.246094-11.496093-29.125.363281-10.882812 5.222656-21.128906 13.417969-28.296875zm0 0" fill="#428dff"/><path d="m58.789062 478.808594c6.785157.015625 13.300782-2.679688 18.097657-7.480469 8.644531-8.632813 9.988281-22.164063 3.207031-32.324219-6.777344-10.160156-19.789062-14.117187-31.078125-9.453125-11.285156 4.667969-17.703125 16.660157-15.328125 28.640625 2.378906 11.980469 12.886719 20.613282 25.101562 20.617188zm-6.042968-31.570313c2.441406-2.441406 6.109375-3.171875 9.300781-1.851562 3.1875 1.320312 5.265625 4.429687 5.265625 7.882812s-2.078125 6.5625-5.265625 7.882813c-3.191406 1.320312-6.859375.589844-9.300781-1.847656-1.625-1.597657-2.542969-3.777344-2.542969-6.054688s.917969-4.460938 2.542969-6.054688zm0 0" fill="#428dff"/></svg>