<?xml version="1.0" encoding="iso-8859-1"?>
<!-- Generator: Adobe Illustrator 19.0.0, SVG Export Plug-In . SVG Version: 6.00 Build 0)  -->
<svg version="1.1" id="Layer_1" xmlns="http://www.w3.org/2000/svg" xmlns:xlink="http://www.w3.org/1999/xlink" x="0px" y="0px"
	 viewBox="0 0 512 512" style="enable-background:new 0 0 512 512;" xml:space="preserve">
<g transform="translate(1 1)">
	<polygon style="fill:#D0E8F9;" points="7.533,7.533 502.467,7.533 502.467,58.733 7.533,58.733 	"/>
	<g>
		<path style="fill:#0096E6;" d="M511,67.267H-1V-1h512V67.267z M16.067,50.2h477.867V16.067H16.067V50.2z"/>
		<path style="fill:#0096E6;" d="M255,451.267c-5.12,0-8.533-3.413-8.533-8.533v-17.067H7.533c-5.12,0-8.533-3.413-8.533-8.533
			s3.413-8.533,8.533-8.533h494.933c5.12,0,8.533,3.413,8.533,8.533s-3.413,8.533-8.533,8.533H263.533v17.067
			C263.533,447.853,260.12,451.267,255,451.267z"/>
	</g>
	<path style="fill:#D0E8F9;" d="M280.6,476.867c0,14.507-11.093,25.6-25.6,25.6c-14.507,0-25.6-11.093-25.6-25.6
		c0-14.507,11.093-25.6,25.6-25.6C269.507,451.267,280.6,462.36,280.6,476.867L280.6,476.867z"/>
	<path style="fill:#0096E6;" d="M255,511c-18.773,0-34.133-15.36-34.133-34.133s15.36-34.133,34.133-34.133
		s34.133,15.36,34.133,34.133S273.773,511,255,511z M255,459.8c-9.387,0-17.067,7.68-17.067,17.067s7.68,17.067,17.067,17.067
		s17.067-7.68,17.067-17.067S264.387,459.8,255,459.8z"/>
	<polygon style="fill:#FFFFFF;" points="24.6,58.733 485.4,58.733 485.4,417.133 24.6,417.133 	"/>
	<g>
		<path style="fill:#0096E6;" d="M493.933,425.667H16.067V50.2h477.867V425.667z M33.133,408.6h443.733V67.267H33.133V408.6z"/>
		<path style="fill:#0096E6;" d="M101.4,357.4c-2.56,0-4.267-0.853-5.973-2.56c-3.413-3.413-3.413-8.533,0-11.947l107.52-107.52l0,0
			l0,0c0,0,0.853-0.853,1.707-0.853l0,0l0,0l0,0l0,0l0,0c0.853-0.853,1.707-0.853,3.413-0.853c2.56-0.853,5.12,0,7.68,2.56
			l70.827,70.827l102.4-102.4h-40.107c-5.12,0-8.533-3.413-8.533-8.533c0-5.12,3.413-8.533,8.533-8.533H408.6l0,0l0,0
			c0.853,0,2.56,0,3.413,0.853c0.853,0,1.707,0.853,2.56,1.707c0.853,0.853,1.707,1.707,1.707,2.56c0,0.853,0.853,1.707,0.853,3.413
			l0,0l0,0v59.733c0,5.12-3.413,8.533-8.533,8.533c-5.12,0-8.533-3.413-8.533-8.533V216.6L291.693,324.12l0,0l0,0l0,0l0,0l0,0l0,0
			l0,0l0,0l0,0l0,0l0,0l0,0l0,0l0,0l0,0l0,0l0,0l0,0l0,0l0,0l0,0l0,0l0,0l0,0l0,0l0,0l0,0l0,0l0,0l0,0l0,0l0,0l0,0
			c-1.707,1.707-3.413,1.707-5.12,2.56l0,0l0,0l0,0c0,0,0,0-0.853,0c-1.707,0-3.413-0.853-5.12-1.707l0,0l0,0l0,0l0,0l0,0l0,0l0,0
			l0,0l0,0l0,0l0,0l0,0l0,0l0,0l0,0l0,0l0,0l0,0l0,0l0,0l0,0l0,0l0,0l0,0l0,0l0,0l0,0l0,0l0,0l0,0l0,0l0,0l0,0l0,0l0,0l0,0l0,0l0,0
			l0,0l0,0l0,0l0,0l0,0l0,0l0,0l0,0l-70.827-70.827l-102.4,100.693C105.667,356.547,103.96,357.4,101.4,357.4z M161.133,195.267
			h-76.8c-5.12,0-8.533-3.413-8.533-8.533c0-5.12,3.413-8.533,8.533-8.533h76.8c5.12,0,8.533,3.413,8.533,8.533
			C169.667,191.853,166.253,195.267,161.133,195.267z M161.133,169.667h-76.8c-5.12,0-8.533-3.413-8.533-8.533
			c0-5.12,3.413-8.533,8.533-8.533h76.8c5.12,0,8.533,3.413,8.533,8.533C169.667,166.253,166.253,169.667,161.133,169.667z
			 M127,144.067H84.333c-5.12,0-8.533-3.413-8.533-8.533S79.213,127,84.333,127H127c5.12,0,8.533,3.413,8.533,8.533
			S132.12,144.067,127,144.067z"/>
	</g>
</g>
<g>
</g>
<g>
</g>
<g>
</g>
<g>
</g>
<g>
</g>
<g>
</g>
<g>
</g>
<g>
</g>
<g>
</g>
<g>
</g>
<g>
</g>
<g>
</g>
<g>
</g>
<g>
</g>
<g>
</g>
</svg>
