<?xml version="1.0" encoding="iso-8859-1"?>
<!-- Generator: Adobe Illustrator 19.0.0, SVG Export Plug-In . SVG Version: 6.00 Build 0)  -->
<svg version="1.1" id="Capa_1" xmlns="http://www.w3.org/2000/svg" xmlns:xlink="http://www.w3.org/1999/xlink" x="0px" y="0px"
	 viewBox="0 0 512 512" style="enable-background:new 0 0 512 512;" xml:space="preserve">
<g>
	<g transform="translate(1 1)">
		<path style="fill:#A4C2F7;" d="M502.467,255c0.011,65.636-26.058,128.586-72.469,174.997
			c-46.411,46.411-109.362,72.48-174.997,72.469c-4.267,0-8.533-0.085-12.715-0.341h-0.171C110.629,495.274,7.531,386.664,7.531,255
			S110.629,14.726,242.115,7.875h0.171c4.181-0.256,8.448-0.341,12.715-0.341c65.636-0.011,128.586,26.058,174.997,72.469
			C476.409,126.414,502.478,189.364,502.467,255z"/>
		<path style="fill:#E3E7F2;" d="M476.867,255c0.003,131.665-103.095,240.275-234.581,247.125h-0.171
			C110.629,495.274,7.531,386.664,7.531,255S110.629,14.726,242.115,7.875h0.171C373.771,14.725,476.869,123.336,476.867,255z"/>
		<path style="fill:#A4C2F7;" d="M468.333,255C468.23,372.778,372.778,468.23,255,468.333c-4.267,0-8.533-0.085-12.8-0.427
			C129.56,461.158,41.667,367.842,41.667,255S129.56,48.842,242.2,42.093c4.267-0.341,8.533-0.427,12.8-0.427
			C372.778,41.77,468.23,137.222,468.333,255z"/>
		
			<linearGradient id="SVGID_1_" gradientUnits="userSpaceOnUse" x1="-49.7379" y1="651.5127" x2="-49.0178" y2="650.8345" gradientTransform="matrix(401.0667 0 0 -425.8134 20046.002 277533.4063)">
			<stop  offset="0" style="stop-color:#D4E1F4"/>
			<stop  offset="0.1717" style="stop-color:#D4E1F4"/>
			<stop  offset="0.2" style="stop-color:#D4E1F4"/>
			<stop  offset="0.2001" style="stop-color:#DAE4F4"/>
			<stop  offset="0.2007" style="stop-color:#EBEBF4"/>
			<stop  offset="0.2014" style="stop-color:#F6F1F4"/>
			<stop  offset="0.2023" style="stop-color:#FDF4F4"/>
			<stop  offset="0.205" style="stop-color:#FFF5F4"/>
			<stop  offset="0.2522" style="stop-color:#FFF5F4"/>
			<stop  offset="0.26" style="stop-color:#FFF5F4"/>
			<stop  offset="0.26" style="stop-color:#D4E1F4"/>
			<stop  offset="0.3974" style="stop-color:#D4E1F4"/>
			<stop  offset="0.42" style="stop-color:#D4E1F4"/>
			<stop  offset="0.4201" style="stop-color:#DAE4F4"/>
			<stop  offset="0.4207" style="stop-color:#EBEBF4"/>
			<stop  offset="0.4214" style="stop-color:#F6F1F4"/>
			<stop  offset="0.4223" style="stop-color:#FDF4F4"/>
			<stop  offset="0.425" style="stop-color:#FFF5F4"/>
			<stop  offset="0.4894" style="stop-color:#FFF5F4"/>
			<stop  offset="0.5" style="stop-color:#FFF5F4"/>
			<stop  offset="0.5" style="stop-color:#F9F2F4"/>
			<stop  offset="0.5001" style="stop-color:#E8EBF4"/>
			<stop  offset="0.5003" style="stop-color:#DDE5F4"/>
			<stop  offset="0.5005" style="stop-color:#D6E2F4"/>
			<stop  offset="0.501" style="stop-color:#D4E1F4"/>
			<stop  offset="0.7062" style="stop-color:#D4E1F4"/>
			<stop  offset="0.74" style="stop-color:#D4E1F4"/>
			<stop  offset="0.741" style="stop-color:#FFF5F4"/>
			<stop  offset="0.8346" style="stop-color:#FFF5F4"/>
			<stop  offset="0.85" style="stop-color:#FFF5F4"/>
			<stop  offset="0.851" style="stop-color:#D4E1F4"/>
		</linearGradient>
		<ellipse style="fill:url(#SVGID_1_);" cx="242.2" cy="255" rx="200.533" ry="212.907"/>
		<g>
			<circle style="fill:#E3E7F2;" cx="255" cy="135.533" r="42.667"/>
			<path style="fill:#E3E7F2;" d="M306.2,374.467c-4.713,0-8.533-3.82-8.533-8.533V220.867c0-4.713-3.821-8.533-8.533-8.533h-102.4
				c-4.713,0-8.533,3.821-8.533,8.533v17.067c0,4.713,3.821,8.533,8.533,8.533H203.8c4.713,0,8.533,3.821,8.533,8.533v110.933
				c0,4.713-3.821,8.533-8.533,8.533h-17.067c-4.713,0-8.533,3.821-8.533,8.533v17.067c0,4.713,3.821,8.533,8.533,8.533h128
				c4.713,0,8.533-3.821,8.533-8.533V383c0-4.713-3.821-8.533-8.533-8.533H306.2z"/>
		</g>
		<path style="fill:#FFFFFF;" d="M267.715,502.125c-4.181,0.256-8.448,0.341-12.715,0.341c-4.267,0-8.533-0.085-12.715-0.341h-0.171
			C110.629,495.274,7.531,386.664,7.531,255S110.629,14.726,242.115,7.875h0.171c4.181-0.256,8.448-0.341,12.715-0.341
			c4.267,0,8.448,0.085,12.629,0.341C136.162,14.772,33.109,123.393,33.132,255.041S136.245,495.273,267.715,502.125z"/>
	</g>
	<g>
		<path style="fill:#FFFFFF;" d="M0,256c0.13-38.401,8.85-76.287,25.521-110.881c5.172-10.795,11.05-21.238,17.597-31.259
			c3.395-4.92,7.106-9.626,10.652-14.444c3.495-4.859,7.337-9.458,11.497-13.761c15.856-17.974,34.251-33.537,54.603-46.197
			c20.239-12.85,42.222-22.721,65.272-29.309C208.211,3.66,232.037,0.247,256,0v17.067c-22.367,0.247-44.604,3.436-66.139,9.484
			c-21.507,6.144-42.016,15.355-60.896,27.349c-19.005,11.812-36.178,26.342-50.973,43.128c-3.895,4.007-7.483,8.301-10.734,12.846
			c-3.302,4.503-6.78,8.887-9.955,13.476c-6.102,9.357-11.583,19.104-16.408,29.179C25.337,184.81,17.196,220.164,17.067,256H0z"/>
		<g>
			<path style="fill:#428DFF;" d="M11.664,194.313c0.378,0.435,0.814,0.816,1.296,1.132c0.408,0.357,0.868,0.649,1.365,0.866
				c0.523,0.229,1.062,0.42,1.612,0.573c2.199,0.5,4.504,0.182,6.485-0.893c0.938-0.569,1.759-1.313,2.417-2.192
				c2.005-2.705,2.209-6.343,0.519-9.256c-0.551-0.952-1.266-1.799-2.112-2.502c-0.838-0.722-1.809-1.274-2.859-1.624
				c-2.19-0.669-4.554-0.475-6.605,0.544c-1.942,1.214-3.348,3.123-3.933,5.338c-0.557,2.255-0.26,4.636,0.834,6.685L11.664,194.313
				z"/>
			<path style="fill:#428DFF;" d="M256,0c-23.963,0.247-47.789,3.66-70.858,10.149c-23.051,6.588-45.034,16.459-65.273,29.309
				c-20.352,12.66-38.746,28.223-54.603,46.197c-4.16,4.303-8.002,8.902-11.497,13.761c-3.546,4.817-7.257,9.524-10.652,14.443
				c-6.547,10.021-12.425,20.464-17.597,31.259l-3.828,7.957c-0.976,2.096-1.04,4.503-0.175,6.648
				c0.865,2.145,2.58,3.835,4.737,4.668c4.282,1.624,9.093-0.309,11.061-4.444l3.58-7.419c4.825-10.075,10.306-19.822,16.408-29.178
				c3.174-4.589,6.652-8.973,9.955-13.476c3.251-4.545,6.84-8.839,10.734-12.846c14.795-16.787,31.969-31.317,50.973-43.129
				c18.879-11.994,39.389-21.205,60.895-27.348c21.535-6.048,43.772-9.237,66.139-9.484c131.959,0,238.933,106.974,238.933,238.933
				S387.959,494.933,256,494.933S17.067,387.959,17.067,256l0.841-16.464l0.432-8.23l1.252-8.143c0.567-4.603-2.593-8.835-7.166-9.6
				c-2.261-0.364-4.574,0.204-6.409,1.574s-3.038,3.426-3.332,5.697l-1.322,8.729l-0.482,8.81L0,256c0,141.385,114.615,256,256,256
				s256-114.615,256-256S397.385,0,256,0z"/>
			<path style="fill:#428DFF;" d="M256,477.867c122.534,0,221.867-99.333,221.867-221.867S378.534,34.133,256,34.133
				S34.133,133.466,34.133,256C34.272,378.476,133.524,477.728,256,477.867z M256,51.2c113.108,0,204.8,91.692,204.8,204.8
				S369.108,460.8,256,460.8S51.2,369.108,51.2,256C51.329,142.946,142.946,51.329,256,51.2z"/>
			<path style="fill:#428DFF;" d="M256,187.733c28.277,0,51.2-22.923,51.2-51.2s-22.923-51.2-51.2-51.2
				c-28.277,0-51.2,22.923-51.2,51.2C204.831,164.798,227.736,187.702,256,187.733z M256,102.4
				c18.851,0,34.133,15.282,34.133,34.133S274.851,170.667,256,170.667c-18.851,0-34.133-15.282-34.133-34.133
				C221.888,117.691,237.158,102.422,256,102.4z"/>
			<path style="fill:#428DFF;" d="M187.733,418.133h128c9.422-0.009,17.057-7.645,17.067-17.067V384
				c-0.009-9.422-7.645-17.057-17.067-17.067H307.2V221.867c-0.009-9.422-7.645-17.057-17.067-17.067h-102.4
				c-9.422,0.009-17.057,7.645-17.067,17.067v17.067c0.009,9.422,7.645,17.057,17.067,17.067H204.8v110.933h-17.067
				c-9.422,0.009-17.057,7.645-17.067,17.067v17.067C170.676,410.488,178.312,418.124,187.733,418.133z M187.733,384H204.8
				c9.422-0.009,17.057-7.645,17.067-17.067V256c-0.009-9.422-7.645-17.057-17.067-17.067h-17.067v-17.067h102.4v145.067
				c0.009,9.422,7.645,17.057,17.067,17.067h8.533v17.067h-128V384z"/>
		</g>
	</g>
</g>
<g>
</g>
<g>
</g>
<g>
</g>
<g>
</g>
<g>
</g>
<g>
</g>
<g>
</g>
<g>
</g>
<g>
</g>
<g>
</g>
<g>
</g>
<g>
</g>
<g>
</g>
<g>
</g>
<g>
</g>
</svg>
