<?xml version="1.0" encoding="utf-8"?>
<!-- Svg Vector Icons : http://www.onlinewebfonts.com/icon -->
<!DOCTYPE svg PUBLIC "-//W3C//DTD SVG 1.1//EN" "http://www.w3.org/Graphics/SVG/1.1/DTD/svg11.dtd">
<svg version="1.1" xmlns="http://www.w3.org/2000/svg" xmlns:xlink="http://www.w3.org/1999/xlink" x="0px" y="0px" viewBox="0 0 1000 1000" enable-background="new 0 0 1000 1000" xml:space="preserve" style="
    fill: #428DFF">
<metadata> Svg Vector Icons : http://www.onlinewebfonts.com/icon </metadata>
<g><g transform="translate(0.000000,511.000000) scale(0.100000,-0.100000)"><path d="M722.1,4988.5C602,4957.8,382.2,4830,313.2,4748.2c-35.8-43.4-94.6-135.5-132.9-207l-69-130.4l-7.7-4255.4c-7.7-4741-20.5-4390.9,168.7-4638.8c61.4-81.8,150.8-155.9,260.7-214.7l166.1-92h4306.5h4306.5l161,86.9c178.9,97.1,255.6,176.3,357.8,370.6l69,130.3V104.3v4306.5l-92,166.1c-58.8,107.3-132.9,199.3-212.1,258.1c-250.5,189.1,99.7,176.3-4587.7,173.8C2695.2,5006.4,765.6,4998.7,722.1,4988.5z M8890.5,104.3v-3884.9H5005.6c-2136.7,0-3884.8,7.7-3884.8,17.9c0,25.6,7726.2,7751.8,7749.2,7751.8C8882.8,3989.1,8890.5,2241,8890.5,104.3z M3032.6,3794.9c120.1-84.3,132.9-150.8,132.9-713.1v-523.9h531.6c485.6,0,536.7-5.1,613.4-51.1c117.6-71.6,173.8-209.6,135.5-334.8c-15.3-53.7-63.9-125.2-107.3-161l-79.2-66.5H3715H3168l-7.7-559.7c-7.7-554.6-7.7-562.3-69-626.2c-35.8-38.3-104.8-79.2-155.9-94.6c-122.7-38.3-260.7,20.4-332.3,135.5c-46,76.7-51.1,127.8-51.1,615.9v529.1h-523.9c-562.3,0-628.7,12.8-713.1,132.9c-53.7,76.7-51.1,260.7,2.6,345c79.2,120.1,166.1,135.4,723.3,135.4h511.2v508.6c0,286.3,12.8,541.8,25.6,582.7c43.5,115,148.2,186.6,281.1,186.6C2922.7,3835.8,3001.9,3817.9,3032.6,3794.9z"/><path d="M5325.1-1429.2c-153.3-61.3-227.5-260.7-155.9-414c86.9-178.9,33.2-173.8,1561.6-173.8c1502.8,0,1477.3-2.5,1559,153.3c81.8,158.5,23,347.6-130.3,421.7c-69,33.2-276.1,38.3-1433.8,35.8C5984.5-1406.2,5353.2-1416.4,5325.1-1429.2z"/></g></g>
</svg>