<?xml version="1.0" encoding="UTF-8"?>
<svg xmlns="http://www.w3.org/2000/svg" xmlns:xlink="http://www.w3.org/1999/xlink" width="512" height="512" viewBox="0 0 60 40" version="1.1"><!-- Generator: Sketch 51.3 (57544) - http://www.bohemiancoding.com/sketch --><title>021 - Mechanic</title><desc>Created with Sketch.</desc><defs/><g id="Page-1" stroke="none" stroke-width="1" fill="none" fill-rule="evenodd"><g id="021---Mechanic" fill-rule="nonzero"><polygon id="Shape" fill="#7FACFA" points="9.833 12 13.983 12 45.444 12 51.417 12 51.36 4 45.444 4 18.086 4 9.89 4"/><path d="M25,8 L19,8.07 C19.2335037,8.02148277 19.4715174,7.99801663 19.71,8 L25,8 Z" id="Shape" fill="#FDD7AD"/><path d="M19.71,8 C19.5628236,8.00003496 19.4158191,8.01005799 19.27,8.03 C19.1793416,8.03843029 19.0892086,8.05178333 19,8.07 L19,8 L19.71,8 Z" id="Shape" fill="#CAD9FC"/><path d="M40,4 L40,18 C40,18.33 39.99,18.66 39.96,18.99 C39.7300033,21.6307567 38.7478858,24.1502524 37.13,26.25 L33.36,31.33 C33.1219352,31.7689176 32.9981347,32.2606804 33,32.76 L33,38 C33,38.5522847 32.5522847,39 32,39 L21,39 C20.4477153,39 20,38.5522847 20,38 L20,30.34 C19.9987268,29.8745575 19.8891716,29.4157952 19.68,29 L13.6,19.2 C13.2181881,18.4351214 13.1817933,17.5434508 13.5,16.75 L15.99,10.51 C16.2940902,9.77418182 16.8046264,9.14208933 17.46,8.69 C17.9221376,8.37380085 18.4476873,8.16221591 19,8.07 L25,8 L19,8 L19,4 C18.9999298,3.20446489 19.3165773,2.44163237 19.88,1.88 C20.0668564,1.69592895 20.2749919,1.53479181 20.5,1.4 C21.4285009,0.86392947 22.5725043,0.864112702 23.5008334,1.40048064 C24.4291625,1.93684857 25.0006877,2.9278596 25,4 C24.9993123,2.9278596 25.5708375,1.93684857 26.4991666,1.40048064 C27.4274957,0.864112702 28.5714991,0.86392947 29.5,1.4 C29.7250081,1.53479181 29.9331436,1.69592895 30.12,1.88 C30.6834227,2.44163237 31.0000702,3.20446489 31,4 C30.9993123,2.9278596 31.5708375,1.93684857 32.4991666,1.40048064 C33.4274957,0.864112702 34.5714991,0.86392947 35.5,1.4 C35.7250081,1.53479181 35.9331436,1.69592895 36.12,1.88 C36.6834227,2.44163237 37.0000702,3.20446489 37,4 C36.9993124,2.92751599 37.5712013,1.93624189 38.5,1.4 C38.7250081,1.53479181 38.9331436,1.69592895 39.12,1.88 C39.6834227,2.44163237 40.0000702,3.20446489 40,4 Z" id="Shape" fill="#E8EDFC"/><path d="M43,4 L43,18 C43,18.33 42.99,18.66 42.96,18.99 C42.7300033,21.6307567 41.7478858,24.1502524 40.13,26.25 L36.36,31.33 C36.1219352,31.7689176 35.9981347,32.2606804 36,32.76 L36,38 C36,38.5522847 35.5522847,39 35,39 L32,39 C32.5522847,39 33,38.5522847 33,38 L33,32.76 C32.9981347,32.2606804 33.1219352,31.7689176 33.36,31.33 L37.13,26.25 C38.7478858,24.1502524 39.7300033,21.6307567 39.96,18.99 C39.99,18.66 40,18.33 40,18 L40,4 C40.0000702,3.20446489 39.6834227,2.44163237 39.12,1.88 C38.9331436,1.69592895 38.7250081,1.53479181 38.5,1.4 C38.9567092,1.13849648 39.4737235,1.00062601 40,1 C41.6568542,1 43,2.34314575 43,4 Z" id="Shape" fill="#CAD9FC"/><polygon id="Shape" fill="#CAD9FC" points="25 8 19 8.07 19 8.04 19.27 8.03 22 8"/><path d="M25,8 L19,8.07 C19.2335037,8.02148277 19.4715174,7.99801663 19.71,8 L25,8 Z" id="Shape" fill="#FDD7AD"/><path d="M13,7.96 C13.0730749,11.7342856 10.0742275,14.8539821 6.3,14.93 C6.02928432,14.9282898 5.75887078,14.9115976 5.49,14.88 C3.90059076,14.6699547 2.44079289,13.8921062 1.38,12.69 C1.16141148,12.4444468 1.07415115,12.1088043 1.14546729,11.7878816 C1.21678343,11.466959 1.4379855,11.1998637 1.74,11.07 C1.86164396,11.0247889 1.99023065,11.0011019 2.12,11 L5,11 C5.83353759,10.9994659 6.62927638,10.652165 7.19645806,10.0413539 C7.76363974,9.43054287 8.05112627,8.61129343 7.99,7.78 C7.81845246,6.17331402 6.44544807,4.96541775 4.83,5 L2.06,5 C1.67759497,5.00291437 1.32701248,4.78748407 1.15684217,4.44501632 C0.986671854,4.10254856 1.02671506,3.69301853 1.26,3.39 C2.22186635,2.22352097 3.55718413,1.42515638 5.04,1.13 C5.45406538,1.04124401 5.87653539,0.997655837 6.3,1 C10.0709664,1.07440281 13.0691498,4.18893364 13,7.96 Z" id="Shape" fill="#7FACFA"/><path d="M10.96,8.03 C11.007623,11.327022 8.71584892,14.1969768 5.49,14.88 C3.90059076,14.6699547 2.44079289,13.8921062 1.38,12.69 C1.16141148,12.4444468 1.07415115,12.1088043 1.14546729,11.7878816 C1.21678343,11.466959 1.4379855,11.1998637 1.74,11.07 L2.96,11.07 C3.17864999,11.0719907 3.39678735,11.048499 3.61,11 L5,11 C5.83353759,10.9994659 6.62927638,10.652165 7.19645806,10.0413539 C7.76363974,9.43054287 8.05112627,8.61129343 7.99,7.78 C7.81845246,6.17331402 6.44544807,4.96541775 4.83,5 L2.06,5 C1.67759497,5.00291437 1.32701248,4.78748407 1.15684217,4.44501632 C0.986671854,4.10254856 1.02671506,3.69301853 1.26,3.39 C2.22186635,2.22352097 3.55718413,1.42515638 5.04,1.13 C8.47454158,1.60152878 11.0159931,4.5636936 10.96,8.03 Z" id="Shape" fill="#7FACFA"/><path d="M58.62,12.69 C57.3755811,14.1056086 55.5847928,14.9209268 53.7,14.93 C53.1945096,14.9317526 52.6907242,14.8712984 52.2,14.75 C49.1326122,13.9234773 47.0012516,11.1417921 47.0012516,7.965 C47.0012516,4.78820791 49.1326122,2.00652274 52.2,1.18 C52.6907242,1.05870164 53.1945096,0.99824739 53.7,1 C55.6517147,1.00800671 57.4987083,1.88386283 58.74,3.39 C58.9732849,3.69301853 59.0133281,4.10254856 58.8431578,4.44501632 C58.6729875,4.78748407 58.322405,5.00291437 57.94,5 L55.17,5 C53.5545519,4.96541775 52.1815475,6.17331402 52.01,7.78 C51.9488737,8.61129343 52.2363603,9.43054287 52.8035419,10.0413539 C53.3707236,10.652165 54.1664624,10.9994659 55,11 L57.88,11 C58.2782684,11.003552 58.6373399,11.240603 58.797093,11.6054445 C58.956846,11.970286 58.8875084,12.3949245 58.62,12.69 Z" id="Shape" fill="#7FACFA"/><path d="M55.62,12.69 C54.7163272,13.7088566 53.5231486,14.4275548 52.2,14.75 C49.1326122,13.9234773 47.0012516,11.1417921 47.0012516,7.965 C47.0012516,4.78820791 49.1326122,2.00652274 52.2,1.18 C53.5865952,1.51767015 54.8277516,2.29251638 55.74,3.39 C55.9732849,3.69301853 56.0133281,4.10254856 55.8431578,4.44501632 C55.6729875,4.78748407 55.322405,5.00291437 54.94,5 L55.169,5 C53.5535519,4.96541775 52.1805475,6.17331402 52.009,7.78 C51.9478611,8.61146679 52.2354806,9.43087615 52.8028824,10.04172 C53.3702842,10.6525638 54.1662885,10.9997436 55,11 L54.88,11 C55.2782684,11.003552 55.6373399,11.240603 55.797093,11.6054445 C55.956846,11.970286 55.8875084,12.3949245 55.62,12.69 Z" id="Shape" fill="#7FACFA"/><path d="M5,11 L2.12,11 C1.99023065,11.0011019 1.86164396,11.0247889 1.74,11.07 C1.4379855,11.1998637 1.21678343,11.466959 1.14546729,11.7878816 C1.07415115,12.1088043 1.16141148,12.4444468 1.38,12.69 C2.44079289,13.8921062 3.90059076,14.6699547 5.49,14.88 C5.75887078,14.9115976 6.02928432,14.9282898 6.3,14.93 C6.82192612,14.9278529 7.34168513,14.8627152 7.848,14.736 C6.50841506,14.4285891 5.29691355,13.7138451 4.38,12.69 C4.16141148,12.4444468 4.07415115,12.1088043 4.14546729,11.7878816 C4.21678343,11.466959 4.4379855,11.1998637 4.74,11.07 C4.86164396,11.0247889 4.99023065,11.0011019 5.12,11 L8,11 C8.83353759,10.9994659 9.62927638,10.652165 10.1964581,10.0413539 C10.7636397,9.43054287 11.0511263,8.61129343 10.99,7.78 C10.8184525,6.17331402 9.44544807,4.96541775 7.83,5 L5.06,5 C4.67759497,5.00291437 4.32701248,4.78748407 4.15684217,4.44501632 C3.98667185,4.10254856 4.02671506,3.69301853 4.26,3.39 C5.17800985,2.28573726 6.43276663,1.51293074 7.832,1.19 C7.33076364,1.06565835 6.81642545,1.00186967 6.3,1 C5.87653539,0.997655837 5.45406538,1.04124401 5.04,1.13 C3.55718413,1.42515638 2.22186635,2.22352097 1.26,3.39 C1.02671506,3.69301853 0.986671854,4.10254856 1.15684217,4.44501632 C1.32701248,4.78748407 1.67759497,5.00291437 2.06,5 L4.83,5 C6.44544807,4.96541775 7.81845246,6.17331402 7.99,7.78 C8.05112627,8.61129343 7.76363974,9.43054287 7.19645806,10.0413539 C6.62927638,10.652165 5.83353759,10.9994659 5,11 Z" id="Shape" fill="#FFFFFF"/><path d="M21,39 L24,39 C23.4477153,39 23,38.5522847 23,38 L23,30.34 C22.9987268,29.8745575 22.8891716,29.4157952 22.68,29 L16.6,19.2 C16.2181881,18.4351214 16.1817933,17.5434508 16.5,16.75 L18.4,12 L15.4,12 L13.5,16.75 C13.1817933,17.5434508 13.2181881,18.4351214 13.6,19.2 L19.68,29 C19.8891716,29.4157952 19.9987268,29.8745575 20,30.34 L20,38 C20,38.5522847 20.4477153,39 21,39 Z" id="Shape" fill="#FFFFFF"/><polygon id="Shape" fill="#FFFFFF" points="35 40 22 40 21 40 21 38 22 38 35 38"/><path d="M26.29,38.29 C26.1996032,38.3856071 26.128323,38.4976187 26.08,38.62 C26.028759,38.7402223 26.00158,38.8693227 26,39 C25.9976374,39.4062651 26.2413038,39.77358 26.6165185,39.929371 C26.9917332,40.0851619 27.4239095,39.9984599 27.71,39.71 L27.83,39.56 C27.8678773,39.5042729 27.8981446,39.4437381 27.92,39.38 C27.9488877,39.3233376 27.9691127,39.2626625 27.98,39.2 C27.9911308,39.1338555 27.9978125,39.0670388 28,39 C27.9961196,38.7352731 27.892565,38.481743 27.71,38.29 C27.6143929,38.1996032 27.5023813,38.128323 27.38,38.08 C27.0070263,37.9291234 26.5802212,38.0113519 26.29,38.29 Z" id="Shape" fill="#428DFF"/><path d="M55.169,6 L57.944,6 C58.728342,6.00281624 59.4419323,5.54690049 59.769,4.834 C60.0980794,4.14939294 59.9964036,3.33559573 59.509,2.753 C58.0467597,0.967893883 55.8454703,-0.0464701035 53.5384317,0.00173550658 C51.2313932,0.0499411167 49.0743969,1.15537156 47.688,3 L43.858,3 C43.4964688,1.56237685 42.3637421,0.446155104 40.9209676,0.105762978 C39.478193,-0.234629147 37.9659916,0.257577781 37,1.382 C36.2501143,0.504913003 35.1539541,-8.10928998e-05 34,-8.10928998e-05 C32.8460459,-8.10928998e-05 31.7498857,0.504913003 31,1.382 C30.2501143,0.504913003 29.1539541,-8.10928998e-05 28,-8.10928998e-05 C26.8460459,-8.10928998e-05 25.7498857,0.504913003 25,1.382 C24.0340084,0.257577781 22.521807,-0.234629147 21.0790324,0.105762978 C19.6362579,0.446155104 18.5035312,1.56237685 18.142,3 L12.312,3 C10.9256751,1.1551494 8.76851468,0.0496372571 6.46133779,0.00162393195 C4.15416089,-0.0463893932 1.95287567,0.968421657 0.491,2.754 C0.00377228606,3.33628243 -0.0979050325,4.14970098 0.231,4.834 C0.558067684,5.54690049 1.27165796,6.00281624 2.056,6 L4.831,6 C5.9217712,5.97027667 6.85843413,6.77004604 7,7.852 C7.04158831,8.43211778 6.8292236,9.00170767 6.418,9.413 C6.04327577,9.79105405 5.53229358,10.0025819 5,10 L2.118,10 C1.33301347,9.99294096 0.618757407,10.4526107 0.3,11.17 C-0.032609577,11.897206 0.0982144814,12.7524732 0.633,13.347 C2.11191435,15.0472924 4.27570605,15.9942866 6.52818513,15.9270571 C8.78066421,15.8598276 10.8841248,14.7854691 12.259,13 L13.923,13 L12.572,16.377 C12.1422507,17.4685523 12.2083099,18.6930181 12.753,19.732 L18.789,29.448 C18.9274301,29.7257064 18.999651,30.031704 19,30.342 L19,38 C19,39.1045695 19.8954305,40 21,40 L23,40 C23.5522847,40 24,39.5522847 24,39 C24,38.4477153 23.5522847,38 23,38 L21,38 L21,30.342 C20.9961827,29.6906001 20.8360277,29.0496373 20.533,28.473 L14.5,18.758 C14.244612,18.2470792 14.2198654,17.6513414 14.432,17.121 L16.926,10.886 C17.3780691,9.74436299 18.4831214,8.99602236 19.711,9 L28.953,9 C29.2520717,8.99981468 29.536003,9.13153535 29.729,9.36 C29.9136231,9.57564078 29.9931018,9.86205703 29.946,10.142 C29.512,12.7 27.848,14 25,14 L22,14 C21.516525,13.9995159 21.1019428,14.3449888 21.0152183,14.8206222 C20.9284938,15.2962556 21.1944669,15.7658174 21.647,15.936 C21.721,15.964 29,18.79 29,25 C29,25.5522847 29.4477153,26 30,26 C30.5522847,26 31,25.5522847 31,25 C31,20.6 28.228,17.68 25.821,15.97 C27.797634,15.9402393 29.6426295,14.973389 30.792,13.365 C31.5027917,14.3462179 32.6240363,14.9476036 33.8346475,14.9969407 C35.0452586,15.0462778 36.2117212,14.538125 37,13.618 C38.2407158,15.0784779 40.3554833,15.4278375 42,14.444 L42,18 C42,18.307 41.989,18.614 41.967,18.919 C41.7455483,21.3684616 40.8304617,23.7040483 39.329,25.652 L35.555,30.738 C35.5266697,30.7769233 35.5009469,30.817679 35.478,30.86 C35.1638248,31.4439932 34.9995771,32.0968605 35,32.76 L35,38 L31,38 C30.4477153,38 30,38.4477153 30,39 C30,39.5522847 30.4477153,40 31,40 L35,40 C36.1045695,40 37,39.1045695 37,38 L37,32.756 C37.0002718,32.4472054 37.0717938,32.1426381 37.209,31.866 L40.935,26.844 C42.6641748,24.5906325 43.714303,21.8905506 43.962,19.061 C43.987,18.708 44,18.355 44,18 L44,13 L47.741,13 C49.1158894,14.7851095 51.2191233,15.8592197 53.471326,15.9264467 C55.7235288,15.9936738 57.8870842,15.0469249 59.366,13.347 C59.9011231,12.7526885 60.0323433,11.8974 59.7,11.17 C59.3812426,10.4526107 58.6669865,9.99294096 57.882,10 L55,10 C54.4694382,10.0012405 53.9605065,9.78981592 53.587,9.413 C53.1757764,9.00170767 52.9634117,8.43211778 53.005,7.852 C53.1463785,6.77199497 54.0801184,5.97287933 55.169,6 Z M22,2 C23.1045695,2 24,2.8954305 24,4 L24,7 L20,7 L20,4 C20,2.8954305 20.8954305,2 22,2 Z M6.3,13.93 C4.70211414,13.9208477 3.18488005,13.2268597 2.133,12.024 L1.384,12.686 L2.118,12 L5,12 C6.11171369,12.0001868 7.17335744,11.5377036 7.93028983,10.7234796 C8.68722221,9.90925558 9.07115512,8.81674759 8.99,7.708 C8.78229198,5.57678259 6.97199176,3.96279048 4.831,4 L2.031,4.034 C3.08076197,2.75494881 4.64534533,2.00949026 6.3,2 C9.51752285,2.07700537 12.0664914,4.74224271 12,7.96 C12.0693133,11.1805473 9.52030691,13.8502961 6.3,13.93 Z M15.065,10.143 L14.723,11 L13.415,11 C14.1855579,9.07598695 14.1952109,6.93087 13.442,5 L18,5 L18,7.31 C16.6612067,7.79060945 15.592644,8.8220364 15.065,10.143 Z M28.953,7 L26,7 L26,4 C26,2.8954305 26.8954305,2 28,2 C29.1045695,2 30,2.8954305 30,4 L30,7.2 C29.6656305,7.07174135 29.311102,7.00401861 28.953,7 Z M34,13 C32.8954305,13 32,12.1045695 32,11 L32,4 C32,2.8954305 32.8954305,2 34,2 C35.1045695,2 36,2.8954305 36,4 L36,11 C36,12.1045695 35.1045695,13 34,13 Z M40,13 C38.8954305,13 38,12.1045695 38,11 L38,4 C38,2.8954305 38.8954305,2 40,2 C41.1045695,2 42,2.8954305 42,4 L42,11 C42,12.1045695 41.1045695,13 40,13 Z M44,11 L44,5 L46.558,5 C45.8047891,6.93087 45.8144421,9.07598695 46.585,11 L44,11 Z M52.173,10.827 C52.9208667,11.5798499 53.9388296,12.0022307 55,12 L57.867,12.024 C56.81512,13.2268597 55.2978859,13.9208477 53.7,13.93 C50.4796931,13.8502961 47.9306867,11.1805473 48,7.96 C47.9335086,4.74224271 50.4824772,2.07700537 53.7,2 C55.3423168,2.00590826 56.8978738,2.73810736 57.949,4 L55.169,4 C53.0280082,3.96279048 51.217708,5.57678259 51.01,7.708 C50.9269146,8.86714165 51.3512831,10.0052374 52.173,10.827 Z" id="Shape" fill="#428DFF"/></g></g></svg>
