<?xml version="1.0" encoding="UTF-8"?>
<svg xmlns="http://www.w3.org/2000/svg" xmlns:xlink="http://www.w3.org/1999/xlink" width="512" height="512" viewBox="0 0 60 60" version="1.1"><!-- Generator: Sketch 51.3 (57544) - http://www.bohemiancoding.com/sketch --><title>001 - Insurance Document</title><desc>Created with Sketch.</desc><defs/><g id="Page-1" stroke="none" stroke-width="1" fill="none" fill-rule="evenodd"><g id="001---Insurance-Document" fill-rule="nonzero"><path d="M47,3 L47,24.86 L25,34 L24.33,33.03 L5,5 L5,3 C5.0032948,1.89679813 5.89679813,1.0032948 7,1 L45,1 C46.1032019,1.0032948 46.9967052,1.89679813 47,3 Z" id="Shape" fill="#E8EDFC"/><path d="M44,3 L44,24.86 L24.33,33.03 L5,5 L5,3 C5.0032948,1.89679813 5.89679813,1.0032948 7,1 L42,1 C43.1032019,1.0032948 43.9967052,1.89679813 44,3 Z" id="Shape" fill="#FFFFFF"/><path d="M43,17 L43,24.86 L42.88,57.67 C42.5958086,58.4648988 41.8441668,58.9966454 41,59 L3,59 C1.89679813,58.9967052 1.0032948,58.1032019 1,57 L1,7 C1.0082863,5.92963084 1.85086015,5.05194975 2.92,5 L31,5 L43,17 Z" id="Shape" fill="#CAD9FC"/><path d="M40,17 L40,24.86 L39.88,57.67 C39.5958086,58.4648988 38.8441668,58.9966454 38,59 L3,59 C1.89679813,58.9967052 1.0032948,58.1032019 1,57 L1,7 C1.0082863,5.92963084 1.85086015,5.05194975 2.92,5 L28,5 L40,17 Z" id="Shape" fill="#E8EDFC"/><path d="M43,17 L33,17 C31.8954305,17 31,16.1045695 31,15 L31,5 L43,17 Z" id="Shape" fill="#CAD9FC"/><path d="M59,30.38 L59,44.51 C58.992642,47.4762688 57.5507546,50.2557211 55.13,51.97 L45.29,58.97 C45.1185238,59.1000109 44.8814762,59.1000109 44.71,58.97 L43.5,58.11 L34.87,51.97 C32.4492454,50.2557211 31.007358,47.4762688 31,44.51 L31,30.38 C31.0005992,30.1809412 31.118079,30.0008055 31.3,29.92 L43.5,24.65 L44.8,24.09 C44.9265851,24.0300079 45.0734149,24.0300079 45.2,24.09 L58.7,29.92 C58.881921,30.0008055 58.9994008,30.1809412 59,30.38 Z" id="Shape" fill="#E8EDFC"/><path d="M56,30.38 L56,44.51 C55.992642,47.4762688 54.5507546,50.2557211 52.13,51.97 L43.5,58.11 L34.87,51.97 C32.4492454,50.2557211 31.007358,47.4762688 31,44.51 L31,30.38 C31.0005992,30.1809412 31.118079,30.0008055 31.3,29.92 L43.5,24.65 L55.7,29.92 C55.881921,30.0008055 55.9994008,30.1809412 56,30.38 Z" id="Shape" fill="#FFFFFF"/><path d="M37.188,48.708 C35.8235742,47.7436208 35.0087098,46.1798109 35,44.509 L35,32.677 L45,28.357 L55,32.677 L55,44.509 C54.991115,46.1800413 54.1763259,47.7440788 52.812,48.709 L45,54.27 L37.188,48.708 Z" id="Shape" fill="#955BA5"/><path d="M37.188,48.708 C35.8235742,47.7436208 35.0087098,46.1798109 35,44.509 L35,32.677 L45,28.357 L55,32.677 L55,44.509 C54.991115,46.1800413 54.1763259,47.7440788 52.812,48.709 L45,54.27 L37.188,48.708 Z" id="Shape" fill="#A4C2F7"/><path d="M45.29,58.97 L46.499,58.11 L45.88,57.669 C45.6708001,58.2532148 45.2030007,58.7077223 44.613,58.9 L44.713,58.969 C44.8836473,59.0977971 45.1189073,59.0982048 45.29,58.97 Z" id="Shape" fill="#FFFFFF"/><path d="M3,59 L6,59 C4.89679813,58.9967052 4.0032948,58.1032019 4,57 L4,7 C4.0082863,5.92963084 4.85086015,5.05194975 5.92,5 L8,5 L8,3 C8.0032948,1.89679813 8.89679813,1.0032948 10,1 L7,1 C5.89679813,1.0032948 5.0032948,1.89679813 5,3 L5,5 L2.92,5 C1.85086015,5.05194975 1.0082863,5.92963084 1,7 L1,57 C1.0032948,58.1032019 1.89679813,58.9967052 3,59 Z" id="Shape" fill="#FFFFFF"/><path d="M12,11 L6,11 C5.44771525,11 5,10.5522847 5,10 C5,9.44771525 5.44771525,9 6,9 L12,9 C12.5522847,9 13,9.44771525 13,10 C13,10.5522847 12.5522847,11 12,11 Z" id="Shape" fill="#7FACFA"/><path d="M26,11 L17,11 C16.4477153,11 16,10.5522847 16,10 C16,9.44771525 16.4477153,9 17,9 L26,9 C26.5522847,9 27,9.44771525 27,10 C27,10.5522847 26.5522847,11 26,11 Z" id="Shape" fill="#7FACFA"/><path d="M38,22 L6,22 C5.44771525,22 5,21.5522847 5,21 C5,20.4477153 5.44771525,20 6,20 L38,20 C38.5522847,20 39,20.4477153 39,21 C39,21.5522847 38.5522847,22 38,22 Z" id="Shape" fill="#7FACFA"/><path d="M20,26 L6,26 C5.44771525,26 5,25.5522847 5,25 C5,24.4477153 5.44771525,24 6,24 L20,24 C20.5522847,24 21,24.4477153 21,25 C21,25.5522847 20.5522847,26 20,26 Z" id="Shape" fill="#7FACFA"/><path d="M38,26 L24,26 C23.4477153,26 23,25.5522847 23,25 C23,24.4477153 23.4477153,24 24,24 L38,24 C38.5522847,24 39,24.4477153 39,25 C39,25.5522847 38.5522847,26 38,26 Z" id="Shape" fill="#7FACFA"/><path d="M33.43,30 L6,30 C5.44771525,30 5,29.5522847 5,29 C5,28.4477153 5.44771525,28 6,28 L33.43,28 C33.9822847,28 34.43,28.4477153 34.43,29 C34.43,29.5522847 33.9822847,30 33.43,30 Z" id="Shape" fill="#7FACFA"/><path d="M20,34 L6,34 C5.44771525,34 5,33.5522847 5,33 C5,32.4477153 5.44771525,32 6,32 L20,32 C20.5522847,32 21,32.4477153 21,33 C21,33.5522847 20.5522847,34 20,34 Z" id="Shape" fill="#7FACFA"/><path d="M31,34 L24,34 C23.4477153,34 23,33.5522847 23,33 C23,32.4477153 23.4477153,32 24,32 L31,32 C31.5522847,32 32,32.4477153 32,33 C32,33.5522847 31.5522847,34 31,34 Z" id="Shape" fill="#7FACFA"/><path d="M31,38 L6,38 C5.44771525,38 5,37.5522847 5,37 C5,36.4477153 5.44771525,36 6,36 L31,36 C31.5522847,36 32,36.4477153 32,37 C32,37.5522847 31.5522847,38 31,38 Z" id="Shape" fill="#7FACFA"/><path d="M20,42 L6,42 C5.44771525,42 5,41.5522847 5,41 C5,40.4477153 5.44771525,40 6,40 L20,40 C20.5522847,40 21,40.4477153 21,41 C21,41.5522847 20.5522847,42 20,42 Z" id="Shape" fill="#7FACFA"/><path d="M31,42 L24,42 C23.4477153,42 23,41.5522847 23,41 C23,40.4477153 23.4477153,40 24,40 L31,40 C31.5522847,40 32,40.4477153 32,41 C32,41.5522847 31.5522847,42 31,42 Z" id="Shape" fill="#7FACFA"/><path d="M31.02,46 L6,46 C5.44771525,46 5,45.5522847 5,45 C5,44.4477153 5.44771525,44 6,44 L31.02,44 C31.5722847,44 32.02,44.4477153 32.02,45 C32.02,45.5522847 31.5722847,46 31.02,46 Z" id="Shape" fill="#7FACFA"/><path d="M36.32,54 L6,54 C5.44771525,54 5,53.5522847 5,53 C5,52.4477153 5.44771525,52 6,52 L36.32,52 C36.8722847,52 37.32,52.4477153 37.32,53 C37.32,53.5522847 36.8722847,54 36.32,54 Z" id="Shape" fill="#7FACFA"/><path d="M20,50 L6,50 C5.44771525,50 5,49.5522847 5,49 C5,48.4477153 5.44771525,48 6,48 L20,48 C20.5522847,48 21,48.4477153 21,49 C21,49.5522847 20.5522847,50 20,50 Z" id="Shape" fill="#7FACFA"/><path d="M32.19,50 L24,50 C23.4477153,50 23,49.5522847 23,49 C23,48.4477153 23.4477153,48 24,48 L32.19,48 C32.7422847,48 33.19,48.4477153 33.19,49 C33.19,49.5522847 32.7422847,50 32.19,50 Z" id="Shape" fill="#7FACFA"/><polygon id="Shape" fill="#FFFFFF" points="0 37 0 24 0 7 2 7 2 24 2 37"/><path d="M1,32 C0.44771525,32 6.76353751e-17,32.4477153 0,33 L0,37 L2,37 L2,33 C2,32.4477153 1.55228475,32 1,32 Z" id="Shape" fill="#428DFF"/><path d="M2,7 L0,7 L0,25 C6.76353751e-17,25.5522847 0.44771525,26 1,26 C1.55228475,26 2,25.5522847 2,25 L2,7 Z" id="Shape" fill="#428DFF"/><path d="M0,29 C0.0038803852,29.2647269 0.107434956,29.518257 0.29,29.71 L0.44,29.83 C0.495727127,29.8678773 0.556261922,29.8981446 0.62,29.92 C0.676662423,29.9488877 0.737337452,29.9691127 0.8,29.98 C0.86614452,29.9911308 0.932961153,29.9978125 1,30 C1.26472686,29.9961196 1.51825702,29.892565 1.71,29.71 C1.80039684,29.6143929 1.87167695,29.5023813 1.92,29.38 C2.07087658,29.0070263 1.98864806,28.5802212 1.71,28.29 C1.61439291,28.1996032 1.50238132,28.128323 1.38,28.08 C1.25977769,28.028759 1.13067726,28.00158 1,28 C0.735273141,28.0038804 0.481742984,28.107435 0.29,28.29 C0.107434956,28.481743 0.0038803852,28.7352731 1.16795462e-16,29 Z" id="Shape" fill="#428DFF"/><path d="M41,60 L3,60 C1.34314575,60 2.02906125e-16,58.6568542 0,57 L0,37 C-6.76353751e-17,36.4477153 0.44771525,36 1,36 C1.55228475,36 2,36.4477153 2,37 L2,57 C2,57.5522847 2.44771525,58 3,58 L41,58 C41.4198197,57.9979888 41.7936843,57.7339669 41.936,57.339 C42.0540763,57.0017413 42.3431086,56.7530943 42.6942214,56.686722 C43.0453342,56.6203497 43.4051849,56.7463356 43.6382214,57.017222 C43.8712579,57.2881084 43.9420763,57.6627413 43.824,58 C43.4007596,59.1971089 42.2697239,59.9981258 41,60 Z" id="Shape" fill="#428DFF"/><path d="M43,25.86 C42.4477153,25.86 42,25.4122847 42,24.86 L42,17.414 L30.586,6 L3,6 C2.44771525,6 2,6.44771525 2,7 C2,7.55228475 1.55228475,8 1,8 C0.44771525,8 6.76353751e-17,7.55228475 0,7 C-2.02906125e-16,5.34314575 1.34314575,4 3,4 L31,4 C31.2651948,4.00005664 31.5195073,4.10545063 31.707,4.293 L43.707,16.293 C43.8945494,16.4804927 43.9999434,16.7348052 44,17 L44,24.86 C44,25.4122847 43.5522847,25.86 43,25.86 Z" id="Shape" fill="#428DFF"/><path d="M43,18 L33,18 C31.3431458,18 30,16.6568542 30,15 L30,5 C30.0000863,4.5956041 30.2437275,4.23106595 30.6173454,4.07632202 C30.9909634,3.92157809 31.4210057,4.00709208 31.707,4.293 L43.707,16.293 C43.9929079,16.5789943 44.0784219,17.0090366 43.923678,17.3826546 C43.7689341,17.7562725 43.4043959,17.9999137 43,18 Z M32,7.414 L32,15 C32,15.5522847 32.4477153,16 33,16 L40.586,16 L32,7.414 Z" id="Shape" fill="#428DFF"/><path d="M43,18 C42.7348052,17.9999434 42.4804927,17.8945494 42.293,17.707 L30.293,5.707 C29.9140278,5.31462111 29.9194476,4.69091522 30.3051814,4.30518142 C30.6909152,3.91944763 31.3146211,3.91402779 31.707,4.293 L43.707,16.293 C43.9929079,16.5789943 44.0784219,17.0090366 43.923678,17.3826546 C43.7689341,17.7562725 43.4043959,17.9999137 43,18 Z" id="Shape" fill="#428DFF"/><path d="M47,25.86 C46.4477153,25.86 46,25.4122847 46,24.86 L46,3 C46,2.44771525 45.5522847,2 45,2 L7,2 C6.44771525,2 6,2.44771525 6,3 L6,5 C6,5.55228475 5.55228475,6 5,6 C4.44771525,6 4,5.55228475 4,5 L4,3 C4,1.34314575 5.34314575,3.04359188e-16 7,0 L45,0 C46.6568542,1.01453063e-16 48,1.34314575 48,3 L48,24.86 C48,25.4122847 47.5522847,25.86 47,25.86 Z" id="Shape" fill="#428DFF"/><path d="M45,60 C44.6290936,60.0002033 44.2673355,59.8848601 43.965,59.67 L34.289,52.782 C31.6076369,50.8784118 30.0103117,47.7973506 30,44.509 L30,30.048 C29.999409,29.649839 30.2350788,29.2892641 30.6,29.13 L44.6,23.082 C44.8527492,22.9730007 45.1392508,22.9730007 45.392,23.082 L59.392,29.13 C59.7569212,29.2892641 59.992591,29.649839 59.992,30.048 L59.992,44.509 C59.9816883,47.7973506 58.3843631,50.8784118 55.703,52.782 L46.028,59.669 C45.7277318,59.8828347 45.3686243,59.9984617 45,60 Z M32,30.705 L32,44.505 C32.0097361,47.1465786 33.2942178,49.620947 35.449,51.149 L45,57.952 L54.551,51.152 C56.7054958,49.624152 57.9899416,47.1502252 58,44.509 L58,30.709 L45,25.089 L32,30.705 Z" id="Shape" fill="#428DFF"/><path d="M45,55.27 C44.792029,55.26982 44.5892884,55.2048032 44.42,55.084 L36.608,49.523 C34.9803344,48.3705817 34.009086,46.503312 34,44.509 L34,32.677 C33.999409,32.278839 34.2350788,31.9182641 34.6,31.759 L44.6,27.439 C44.8527492,27.3300007 45.1392508,27.3300007 45.392,27.439 L55.392,31.759 C55.7569212,31.9182641 55.992591,32.278839 55.992,32.677 L55.992,44.509 C55.9825824,46.5032302 55.0114082,48.3703573 53.384,49.523 L45.58,55.084 C45.4107116,55.2048032 45.207971,55.26982 45,55.27 Z M37.769,47.894 L45,53.042 L52.231,47.9 C53.3337961,47.1217704 53.9926973,45.8587211 54,44.509 L54,33.334 L45,29.447 L36,33.334 L36,44.509 C36.0087381,45.8567225 36.6675346,47.1173365 37.769,47.894 Z" id="Shape" fill="#428DFF"/><path d="M43,47 C42.7836298,47 42.5730962,46.9298221 42.4,46.8 L38.4,43.8 C37.9581722,43.4686292 37.8686292,42.8418278 38.2,42.4 C38.5313708,41.9581722 39.1581722,41.8686292 39.6,42.2 L42.825,44.619 L50.219,35.375 C50.564178,34.9436656 51.1936656,34.873822 51.625,35.219 C52.0563344,35.564178 52.126178,36.1936656 51.781,36.625 L43.781,46.625 C43.5911385,46.8621369 43.3037783,47.000114 43,47 Z" id="Shape" fill="#428DFF"/></g></g></svg>
