<?xml version="1.0" encoding="UTF-8"?>
<svg xmlns="http://www.w3.org/2000/svg" xmlns:xlink="http://www.w3.org/1999/xlink" width="512" height="512" viewBox="0 0 60 60" version="1.1"><!-- Generator: Sketch 51.3 (57544) - http://www.bohemiancoding.com/sketch --><title>025 - Pipe Cover</title><desc>Created with Sketch.</desc><defs/><g id="Page-1" stroke="none" stroke-width="1" fill="none" fill-rule="evenodd"><g id="025---Pipe-Cover" fill-rule="nonzero"><path d="M56.27,51 L58,51 C58.5522847,51 59,51.4477153 59,52 L59,58 C59,58.5522847 58.5522847,59 58,59 L34,59 C33.4477153,59 33,58.5522847 33,58 L33,52 C33.0003552,51.5404464 33.3138776,51.1402928 33.76,51.03 L56.27,51 Z" id="Shape" fill="#CAD9FC"/><path d="M53.585,51 L55.115,51 C55.6340344,51.0348089 56.0285449,51.4805834 56,52 L56,58 C56.0285449,58.5194166 55.6340344,58.9651911 55.115,59 L33.885,59 C33.3659656,58.9651911 32.9714551,58.5194166 33,58 L33,52 C32.9827556,51.5630261 33.2568339,51.1674071 33.672,51.03 L53.585,51 Z" id="Shape" fill="#E8EDFC"/><rect id="Rectangle-path" fill="#E8EDFC" transform="translate(5.000000, 14.000000) rotate(-90.000000) translate(-5.000000, -14.000000) " x="-8" y="10" width="26" height="8" rx="1"/><path d="M57,25 L57,51 L35,51 L32.73,29.3 C30.6703896,26.6178549 27.4915477,25.0321217 24.11,25 L9,25 L9,3 L35,3 C47.1502645,3 57,12.8497355 57,25 Z" id="Shape" fill="#CAD9FC"/><path d="M54,25 L54,51 L35,51 L32.73,29.3 C30.6703896,26.6178549 27.4915477,25.0321217 24.11,25 L9,25 L9,3 L32,3 C44.1502645,3 54,12.8497355 54,25 Z" id="Shape" fill="#E8EDFC"/><path d="M27,36 C27,38.209139 25.209139,40 23,40 C20.790861,40 19,38.209139 19,36 C19,34.35 21.24,31.25 22.38,29.79 L22.38,29.78 C22.75,29.3 23,29 23,29 C23,29 27,33.79 27,36 Z" id="Shape" fill="#7FACFA"/><path d="M24,35 C24,37.21 22.508,39 20.667,39 C20.4648272,39.0024648 20.2631757,38.9789388 20.067,38.93 C19.3627965,38.1179696 18.9828793,37.0747106 19,36 C19,34.35 20.867,31.25 21.817,29.79 C22.783,31.38 24,33.66 24,35 Z" id="Shape" fill="#A4C2F7"/><path d="M59,30.31 L59,44.44 C58.9949804,47.4068418 57.5525697,50.1873028 55.13,51.9 L45.29,58.91 C45.115307,59.0300632 44.884693,59.0300632 44.71,58.91 L43.5,58.05 L34.87,51.9 C32.4474303,50.1873028 31.0050196,47.4068418 31,44.44 L31,30.31 C31.0005992,30.1109412 31.118079,29.9308055 31.3,29.85 L43.5,24.58 L44.8,24.02 C44.9286443,23.9699919 45.0713557,23.9699919 45.2,24.02 L58.7,29.85 C58.881921,29.9308055 58.9994008,30.1109412 59,30.31 Z" id="Shape" fill="#E8EDFC"/><path d="M56,30.31 L56,44.44 C55.9949804,47.4068418 54.5525697,50.1873028 52.13,51.9 L43.5,58.05 L34.87,51.9 C32.4474303,50.1873028 31.0050196,47.4068418 31,44.44 L31,30.31 C31.0005992,30.1109412 31.118079,29.9308055 31.3,29.85 L43.5,24.58 L55.7,29.85 C55.881921,29.9308055 55.9994008,30.1109412 56,30.31 Z" id="Shape" fill="#FFFFFF"/><path d="M37.188,48.643 C35.8235742,47.6786208 35.0087098,46.1148109 35,44.444 L35,32.612 L45,28.292 L55,32.612 L55,44.444 C54.991115,46.1150413 54.1763259,47.6790788 52.812,48.644 L45,54.2 L37.188,48.643 Z" id="Shape" fill="#955BA5"/><path d="M37.188,48.643 C35.8235742,47.6786208 35.0087098,46.1148109 35,44.444 L35,32.612 L45,28.292 L55,32.612 L55,44.444 C54.991115,46.1150413 54.1763259,47.6790788 52.812,48.644 L45,54.2 L37.188,48.643 Z" id="Shape" fill="#A4C2F7"/><path d="M20.318,38.959 C21.4510255,39.9947197 23.0800912,40.2833706 24.5,39.7 C24.0667576,39.5207769 23.6673389,39.2688151 23.319,38.955 C23.2348213,38.9504484 23.1509988,38.9407638 23.068,38.926 C22.3643608,38.1151485 21.9841444,37.0734696 22,36 C22,34.623 23.3,32.249 24.277,30.648 C23.569,29.681 23,29 23,29 C23,29 22.75,29.3 22.38,29.78 L22.38,29.79 C22.28,29.912 22.172,30.061 22.063,30.205 C21.98,30.064 21.897,29.922 21.817,29.79 C20.867,31.25 19,34.35 19,36 C18.9828793,37.0747106 19.3627965,38.1179696 20.067,38.93 C20.1499988,38.9447638 20.2338213,38.9544484 20.318,38.959 Z" id="Shape" fill="#FFFFFF"/><path d="M2,27 L5,27 C4.44771525,27 4,26.5522847 4,26 L4,2 C4,1.44771525 4.44771525,1 5,1 L2,1 C1.44771525,1 1,1.44771525 1,2 L1,26 C1,26.5522847 1.44771525,27 2,27 Z" id="Shape" fill="#FFFFFF"/><path d="M44,21 C43.9443626,21.000224 43.888814,20.9955391 43.834,20.986 L37.834,19.986 C37.67656,19.9595328 37.5277452,19.895755 37.4,19.8 L33.4,16.8 C33.1141875,16.5856406 32.9644453,16.2350853 33.0071797,15.8803848 C33.0499141,15.5256842 33.2786328,15.2207259 33.6071797,15.0803848 C33.9357266,14.9400436 34.3141875,14.9856406 34.6,15.2 L38.405,18.054 L44.165,19.014 C44.6772454,19.1006225 45.0378443,19.5650637 44.9948301,20.0827978 C44.9518159,20.6005319 44.5195171,20.9990979 44,21 Z" id="Shape" fill="#CAD9FC"/><path d="M23,26 C22.9501206,26.0002798 22.9002976,25.9966016 22.851,25.989 C22.4230951,25.9243768 22.085313,25.591841 22.014,25.165 L21.014,19.165 L20.03,15.243 C19.9402843,14.8954249 20.0437487,14.5264285 20.3010941,14.2761673 C20.5584395,14.025906 20.9301796,13.9327794 21.2751156,14.0321598 C21.6200517,14.1315402 21.8852577,14.408179 21.97,14.757 L22.97,18.757 L23.479,21.805 L25.105,18.553 C25.2178719,18.3267714 25.4122448,18.1516929 25.649,18.063 L33.526,15.11 L40.419,10.186 C40.7029163,9.98196352 41.0731512,9.94209206 41.394,10.081 L48.394,13.081 C48.8933742,13.3035705 49.1214312,13.8859312 48.9059982,14.3884258 C48.6905653,14.8909204 48.111513,15.1272516 47.606,14.919 L41.124,12.141 L34.581,16.814 C34.5098099,16.8645074 34.4325333,16.9058336 34.351,16.937 L26.719,19.8 L23.9,25.447 C23.7297741,25.7876694 23.3808256,26.0020788 23,26 Z" id="Shape" fill="#CAD9FC"/><path d="M45,60 C44.6290936,60.0002033 44.2673355,59.8848601 43.965,59.67 L34.289,52.781 C31.6075366,50.8779533 30.0101362,47.7971195 30,44.509 L30,30.047 C29.999409,29.648839 30.2350788,29.2882641 30.6,29.129 L44.6,23.082 C44.8525505,22.9720423 45.1394495,22.9720423 45.392,23.082 L59.392,29.129 C59.7569212,29.2882641 59.992591,29.648839 59.992,30.047 L59.992,44.509 C59.9815318,47.797038 58.3842055,50.8777289 55.703,52.781 L46.028,59.669 C45.7277318,59.8828347 45.3686243,59.9984617 45,60 Z M32,30.705 L32,44.505 C32.0097266,47.1463069 33.2942465,49.6203764 35.449,51.148 L45,57.951 L54.551,51.151 C56.705467,49.6235813 57.989951,47.1499534 58,44.509 L58,30.709 L45,25.089 L32,30.705 Z" id="Shape" fill="#428DFF"/><path d="M45,55.269 C44.792029,55.26882 44.5892884,55.2038032 44.42,55.083 L36.608,49.522 C34.9806207,48.3697867 34.0094083,46.5029585 34,44.509 L34,32.677 C33.999409,32.278839 34.2350788,31.9182641 34.6,31.759 L44.6,27.439 C44.8527492,27.3300007 45.1392508,27.3300007 45.392,27.439 L55.392,31.759 C55.7569212,31.9182641 55.992591,32.278839 55.992,32.677 L55.992,44.509 C55.9824167,46.5031892 55.0112795,48.3702451 53.384,49.523 L45.572,55.083 C45.404939,55.2022308 45.2052365,55.2671691 45,55.269 Z M37.769,47.894 L45,53.042 L52.231,47.894 C53.3323369,47.117224 53.9910962,45.8566812 54,44.509 L54,33.334 L45,29.446 L36,33.334 L36,44.509 C36.0087381,45.8567225 36.6675346,47.1173365 37.769,47.894 Z" id="Shape" fill="#428DFF"/><path d="M43,47 C42.7836298,47 42.5730962,46.9298221 42.4,46.8 L38.4,43.8 C37.9581722,43.4686292 37.8686292,42.8418278 38.2,42.4 C38.5313708,41.9581722 39.1581722,41.8686292 39.6,42.2 L42.825,44.618 L50.219,35.375 C50.5650579,34.9477006 51.1911792,34.8799554 51.6206245,35.2233466 C52.0500699,35.5667379 52.1217114,36.1924254 51.781,36.624 L43.781,46.624 C43.5913371,46.8615116 43.3039469,46.999871 43,47 Z" id="Shape" fill="#428DFF"/><path d="M58,60 L34,60 C32.8954305,60 32,59.1045695 32,58 L32,52 C32.0003681,51.0817677 32.6259466,50.281753 33.517,50.06 C34.0458287,49.9438982 34.5710107,50.2697585 34.7018154,50.7951436 C34.83262,51.3205288 34.5215329,51.8545942 34,52 L34,58 L58,58 L58,52 L56.27,52 C55.7177153,52 55.27,51.5522847 55.27,51 C55.27,50.4477153 55.7177153,50 56.27,50 L58,50 C59.1045695,50 60,50.8954305 60,52 L60,58 C60,59.1045695 59.1045695,60 58,60 Z" id="Shape" fill="#428DFF"/><polygon id="Shape" fill="#FFFFFF" points="0 26 0 13 0 2 2 2 2 13 2 26"/><path d="M1,21 C0.44771525,21 6.76353751e-17,21.4477153 0,22 L0,26 L2,26 L2,22 C2,21.4477153 1.55228475,21 1,21 Z" id="Shape" fill="#428DFF"/><path d="M2,2 L0,2 L0,14 C6.76353751e-17,14.5522847 0.44771525,15 1,15 C1.55228475,15 2,14.5522847 2,14 L2,2 Z" id="Shape" fill="#428DFF"/><path d="M5.77315973e-18,18 C0.0038803852,18.2647269 0.107434956,18.518257 0.29,18.71 L0.44,18.83 C0.495727127,18.8678773 0.556261922,18.8981446 0.62,18.92 C0.676662423,18.9488877 0.737337452,18.9691127 0.8,18.98 C0.86614452,18.9911308 0.932961153,18.9978125 1,19 C1.26472686,18.9961196 1.51825702,18.892565 1.71,18.71 C1.80039684,18.6143929 1.87167695,18.5023813 1.92,18.38 C2.07087658,18.0070263 1.98864806,17.5802212 1.71,17.29 C1.61439291,17.1996032 1.50238132,17.128323 1.38,17.08 C1.25977769,17.028759 1.13067726,17.00158 1,17 C0.735273141,17.0038804 0.481742984,17.107435 0.29,17.29 C0.107434956,17.481743 0.0038803852,17.7352731 -1.11022302e-16,18 Z" id="Shape" fill="#428DFF"/><path d="M8,28 L2,28 C0.8954305,28 1.3527075e-16,27.1045695 0,26 C-6.76353751e-17,25.4477153 0.44771525,25 1,25 C1.55228475,25 2,25.4477153 2,26 L8,26 L8,2 L2,2 C2,2.55228475 1.55228475,3 1,3 C0.44771525,3 6.76353751e-17,2.55228475 0,2 C-1.3527075e-16,0.8954305 0.8954305,2.02906125e-16 2,0 L8,0 C9.1045695,6.76353751e-17 10,0.8954305 10,2 L10,26 C10,27.1045695 9.1045695,28 8,28 Z" id="Shape" fill="#428DFF"/><path d="M32.73,30.3 C32.4199731,30.3001145 32.1274264,30.1564268 31.938,29.911 C30.0485053,27.4385574 27.1117668,25.9916458 24,26 L9,26 C8.44771525,26 8,25.5522847 8,25 L8,3 C8,2.44771525 8.44771525,2 9,2 L35,2 C47.6966095,2.01432841 57.9856716,12.3033905 58,25 L58,29.19 C58,29.7422847 57.5522847,30.19 57,30.19 C56.4477153,30.19 56,29.7422847 56,29.19 L56,25 C55.987324,13.4072749 46.5927251,4.01267598 35,4 L10,4 L10,24 L24,24 C27.7322465,23.9895745 31.2548495,25.7242401 33.522,28.689 C33.7549924,28.9908721 33.7960222,29.3989765 33.6277845,29.7411874 C33.4595468,30.0833982 33.1113295,30.3001409 32.73,30.3 Z" id="Shape" fill="#428DFF"/><path d="M57,52 L56.27,52 C55.766754,52.0016323 55.3406966,51.6290303 55.275249,51.1300555 C55.2098014,50.6310808 55.5253559,50.1612058 56.012,50.033 C56.0927281,49.5165315 56.5576149,49.1493821 57.078732,49.1905367 C57.5998491,49.2316913 58.001342,49.6672621 58,50.19 L58,51 C58,51.5522847 57.5522847,52 57,52 Z" id="Shape" fill="#428DFF"/><path d="M23,41 C20.2399468,40.9966939 18.0033061,38.7600532 18,36 C18,33.552 21.525,29.206 22.232,28.359 C22.428235,28.1417878 22.7072727,28.0178307 23,28.0178307 C23.2927273,28.0178307 23.571765,28.1417878 23.768,28.359 C24.475,29.206 28,33.552 28,36 C27.9966939,38.7600532 25.7600532,40.9966939 23,41 Z M23,30.6 C21.57,32.468 20,34.924 20,36 C20,37.6568542 21.3431458,39 23,39 C24.6568542,39 26,37.6568542 26,36 C26,34.925 24.431,32.469 23,30.6 Z" id="Shape" fill="#428DFF"/></g></g></svg>
