<?xml version="1.0" encoding="iso-8859-1"?>
<!-- Generator: Adobe Illustrator 19.0.0, SVG Export Plug-In . SVG Version: 6.00 Build 0)  -->
<svg version="1.1" id="Layer_1" xmlns="http://www.w3.org/2000/svg" xmlns:xlink="http://www.w3.org/1999/xlink" x="0px" y="0px"
	 viewBox="0 0 512 512" style="enable-background:new 0 0 512 512;" xml:space="preserve">
<g transform="translate(1 1)">
	<path style="fill:#FFFFFF;" d="M255,434.2c-98.987,0-179.2-80.213-179.2-179.2S156.013,75.8,255,75.8S434.2,156.013,434.2,255
		S353.987,434.2,255,434.2L255,434.2z"/>
	<g>
		<path style="fill:#0096E6;" d="M255,442.733c-103.253,0-187.733-84.48-187.733-187.733S151.747,67.267,255,67.267
			S442.733,151.747,442.733,255S358.253,442.733,255,442.733z M255,84.333c-93.867,0-170.667,76.8-170.667,170.667
			S161.133,425.667,255,425.667S425.667,348.867,425.667,255S348.867,84.333,255,84.333z"/>
		<path style="fill:#0096E6;" d="M255,417.133c-5.12,0-8.533-3.413-8.533-8.533v-17.067c0-5.12,3.413-8.533,8.533-8.533
			s8.533,3.413,8.533,8.533V408.6C263.533,413.72,260.12,417.133,255,417.133z M408.6,263.533h-17.067
			c-5.12,0-8.533-3.413-8.533-8.533s3.413-8.533,8.533-8.533H408.6c5.12,0,8.533,3.413,8.533,8.533S413.72,263.533,408.6,263.533z
			 M118.467,263.533H101.4c-5.12,0-8.533-3.413-8.533-8.533s3.413-8.533,8.533-8.533h17.067c5.12,0,8.533,3.413,8.533,8.533
			S123.587,263.533,118.467,263.533z M255,127c-5.12,0-8.533-3.413-8.533-8.533V101.4c0-5.12,3.413-8.533,8.533-8.533
			s8.533,3.413,8.533,8.533v17.067C263.533,123.587,260.12,127,255,127z"/>
	</g>
	<path style="fill:#D0E8F9;" d="M280.6,246.467c0,14.507-11.093,25.6-25.6,25.6c-14.507,0-25.6-11.093-25.6-25.6
		c0-14.507,11.093-25.6,25.6-25.6C269.507,220.867,280.6,231.96,280.6,246.467L280.6,246.467z"/>
	<g>
		<path style="fill:#0096E6;" d="M255,280.6c-18.773,0-34.133-15.36-34.133-34.133s15.36-34.133,34.133-34.133
			s34.133,15.36,34.133,34.133S273.773,280.6,255,280.6z M255,229.4c-9.387,0-17.067,7.68-17.067,17.067s7.68,17.067,17.067,17.067
			s17.067-7.68,17.067-17.067S264.387,229.4,255,229.4z"/>
		<path style="fill:#0096E6;" d="M161.133,348.867c-2.56,0-4.267-0.853-5.973-2.56c-3.413-3.413-3.413-8.533,0-11.947l75.947-75.947
			c3.413-3.413,8.533-3.413,11.947,0c3.413,3.413,3.413,8.533,0,11.947l-75.947,75.947
			C165.4,348.013,163.693,348.867,161.133,348.867z M502.467,263.533c-5.12,0-8.533-3.413-8.533-8.533
			c0-131.413-107.52-238.933-238.933-238.933c-53.76,0-105.813,17.92-147.627,51.2H152.6c5.12,0,8.533,3.413,8.533,8.533
			c0,5.12-3.413,8.533-8.533,8.533H86.04c-0.853,0-2.56,0-3.413,0H75.8V75.8l0,0V7.533C75.8,2.413,79.213-1,84.333-1
			s8.533,3.413,8.533,8.533v49.493C138.947,19.48,195.267-1,255-1c140.8,0,256,115.2,256,256
			C511,260.12,507.587,263.533,502.467,263.533z M255,229.4c-5.12,0-8.533-3.413-8.533-8.533v-51.2c0-5.12,3.413-8.533,8.533-8.533
			s8.533,3.413,8.533,8.533v51.2C263.533,225.987,260.12,229.4,255,229.4z"/>
		<path style="fill:#0096E6;" d="M251.587,502.467c0-4.267,3.413-8.533,8.533-8.533l0,0c4.267,0,8.533,3.413,8.533,8.533l0,0
			c0,5.12-3.413,8.533-8.533,8.533l0,0l0,0l0,0C255,511,251.587,507.587,251.587,502.467z M233.667,510.147L233.667,510.147
			L233.667,510.147c-5.12,0-8.533-4.267-7.68-9.387l0,0c0-4.267,4.267-8.533,9.387-7.68l0,0c4.267,0.853,8.533,4.267,7.68,9.387l0,0
			C242.2,506.733,238.787,510.147,233.667,510.147L233.667,510.147L233.667,510.147z M277.187,501.613
			c-0.853-4.267,2.56-8.533,7.68-9.387l0,0c4.267-0.853,8.533,2.56,9.387,7.68l0,0c0.853,4.267-2.56,8.533-7.68,9.387l0,0h-0.853
			l0,0C280.6,509.293,277.187,505.88,277.187,501.613z M207.213,506.733c-4.267-0.853-7.68-5.12-6.827-10.24l0,0
			c0.853-4.267,5.12-7.68,10.24-6.827l0,0c4.267,0.853,7.68,5.12,6.827,10.24l0,0c-0.853,4.267-4.267,6.827-8.533,6.827l0,0
			C208.067,506.733,208.067,506.733,207.213,506.733z M301.933,498.2c-0.853-4.267,1.707-9.387,6.827-10.24l0,0
			c4.267-0.853,9.387,1.707,10.24,6.827l0,0c0.853,4.267-1.707,9.387-6.827,10.24l0,0c-0.853,0-1.707,0-1.707,0l0,0
			C306.2,505.027,302.787,502.467,301.933,498.2z M181.613,499.907c-4.267-1.707-6.827-5.973-5.973-10.24l0,0
			c1.707-4.267,5.973-6.827,10.24-5.973l0,0c4.267,1.707,6.827,5.973,5.973,10.24l0,0c-0.853,3.413-4.267,5.973-8.533,5.973l0,0
			C183.32,500.76,182.467,500.76,181.613,499.907z M326.68,492.227c-1.707-4.267,0.853-9.387,5.12-11.093l0,0
			c4.267-1.707,9.387,0.853,11.093,5.12l0,0c1.707,4.267-0.853,9.387-5.12,11.093l0,0c-0.853,0-1.707,0-2.56,0l0,0
			C331.8,497.347,328.387,495.64,326.68,492.227z M156.867,491.373c-4.267-1.707-6.827-6.827-4.267-11.093l0,0
			c1.707-4.267,6.827-6.827,11.093-4.267l0,0c4.267,1.707,6.827,6.827,4.267,11.093l0,0c-1.707,3.413-4.267,5.12-7.68,5.12l0,0
			C158.573,492.227,157.72,492.227,156.867,491.373z M351.427,482.84c-1.707-4.267,0-9.387,4.267-11.093l0,0
			c4.267-1.707,9.387,0,11.093,4.267l0,0c1.707,4.267,0,9.387-4.267,11.093l0,0c-0.853,0.853-2.56,0.853-3.413,0.853l0,0
			C355.693,487.96,352.28,486.253,351.427,482.84z M132.973,479.427c-4.267-2.56-5.973-7.68-3.413-11.093l0,0
			c2.56-4.267,7.68-5.973,11.947-3.413l0,0c4.267,2.56,5.973,7.68,3.413,11.947l0,0c-1.707,2.56-4.267,4.267-7.68,4.267l0,0
			C135.533,481.133,133.827,480.28,132.973,479.427z M374.467,471.747c-2.56-4.267-0.853-9.387,2.56-11.947l0,0
			c4.267-2.56,9.387-0.853,11.947,3.413l0,0c2.56,4.267,0.853,9.387-2.56,11.947l0,0l0,0l0,0c-1.707,0.853-2.56,0.853-4.267,0.853
			l0,0C378.733,476.013,375.32,475.16,374.467,471.747z M109.933,465.773L109.933,465.773L109.933,465.773
			c-4.267-2.56-5.12-7.68-1.707-11.947l0,0c2.56-4.267,7.68-5.12,11.947-2.56l0,0c3.413,2.56,5.12,7.68,1.707,11.947l0,0
			c-1.707,2.56-4.267,3.413-6.827,3.413l0,0C113.347,467.48,111.64,466.627,109.933,465.773z M395.8,458.093
			c-2.56-3.413-1.707-9.387,1.707-11.947l0,0c3.413-2.56,9.387-1.707,11.947,1.707l0,0c2.56,3.413,1.707,9.387-1.707,11.947l0,0
			c-1.707,0.853-3.413,1.707-5.12,1.707l0,0C400.067,461.507,397.507,460.653,395.8,458.093z M89.453,449.56
			c-3.413-3.413-4.267-8.533-0.853-11.947l0,0c3.413-3.413,8.533-4.267,11.947-0.853l0,0c3.413,3.413,4.267,8.533,0.853,11.947l0,0
			c-1.707,1.707-4.267,3.413-6.827,3.413l0,0C92.867,452.12,91.16,451.267,89.453,449.56z M416.28,442.733
			c-3.413-3.413-2.56-8.533,0.853-11.947l0,0c3.413-3.413,8.533-2.56,11.947,0.853l0,0c3.413,3.413,3.413,8.533-0.853,11.947l0,0
			l0,0l0,0c-1.707,1.707-3.413,2.56-5.973,2.56l0,0C419.693,445.293,417.987,444.44,416.28,442.733z M69.827,431.64
			c-3.413-3.413-3.413-8.533,0-11.947l0,0c3.413-3.413,8.533-3.413,11.947,0l0,0c3.413,3.413,3.413,8.533,0,11.947l0,0
			c-1.707,1.707-3.413,2.56-5.973,2.56l0,0C74.093,434.2,71.533,433.347,69.827,431.64z M434.2,425.667
			c-3.413-3.413-4.267-8.533-0.853-11.947l0,0c3.413-3.413,8.533-4.267,11.947-0.853l0,0c3.413,3.413,4.267,8.533,0.853,11.947l0,0
			c-1.707,1.707-4.267,2.56-6.827,2.56l0,0C438.467,427.373,435.907,426.52,434.2,425.667z M52.76,412.013
			c-2.56-4.267-2.56-9.387,1.707-11.947l0,0c3.413-2.56,9.387-2.56,11.947,1.707l0,0c2.56,3.413,2.56,9.387-1.707,11.947l0,0
			c-1.707,0.853-3.413,1.707-5.12,1.707l0,0C57.027,415.427,54.467,413.72,52.76,412.013z M451.267,406.04
			c-4.267-2.56-4.267-8.533-1.707-11.947l0,0c2.56-4.267,8.533-4.267,11.947-1.707l0,0c3.413,2.56,4.267,7.68,1.707,11.947l0,0l0,0
			l0,0c-1.707,2.56-4.267,3.413-6.827,3.413l0,0C454.68,407.747,452.973,406.893,451.267,406.04z M37.4,389.827
			c-2.56-4.267-1.707-9.387,2.56-11.947l0,0c4.267-2.56,9.387-0.853,11.947,2.56l0,0c2.56,4.267,0.853,9.387-2.56,11.947l0,0
			c-1.707,0.853-3.413,1.707-4.267,1.707l0,0C41.667,394.093,39.107,392.387,37.4,389.827z M465.773,384.707
			c-4.267-2.56-5.973-7.68-3.413-11.947l0,0c2.56-4.267,7.68-5.973,11.947-3.413l0,0c4.267,2.56,5.12,7.68,3.413,11.947l0,0
			c-1.707,2.56-4.267,4.267-7.68,4.267l0,0C468.333,385.56,467.48,385.56,465.773,384.707z M24.6,366.787
			c-1.707-4.267,0-9.387,4.267-11.093l0,0c4.267-1.707,9.387,0,11.093,4.267l0,0c1.707,4.267,0,9.387-4.267,11.093l0,0
			c-0.853,0.853-2.56,0.853-3.413,0.853l0,0C28.867,371.907,26.307,370.2,24.6,366.787z M477.72,362.52
			c-4.267-1.707-5.973-6.827-4.267-11.093l0,0c1.707-4.267,6.827-5.973,11.093-4.267l0,0c4.267,1.707,5.973,6.827,4.267,11.093l0,0
			c-1.707,3.413-4.267,5.12-7.68,5.12l0,0C480.28,363.373,479.427,362.52,477.72,362.52z M14.36,342.04
			c-1.707-4.267,0.853-9.387,5.12-11.093l0,0c4.267-1.707,9.387,0.853,11.093,5.12l0,0c1.707,4.267-0.853,9.387-5.12,11.093l0,0
			c-0.853,0-1.707,0.853-3.413,0.853l0,0C18.627,348.013,15.213,346.307,14.36,342.04z M487.96,338.627
			c-4.267-1.707-6.827-5.973-5.12-11.093l0,0c1.707-4.267,5.973-6.827,10.24-5.973l0,0c4.267,1.707,6.827,5.973,5.12,11.093l0,0
			c-0.853,3.413-4.267,5.973-7.68,5.973l0,0C489.667,338.627,488.813,338.627,487.96,338.627z M6.68,317.293
			c-0.853-4.267,1.707-9.387,5.973-10.24l0,0c4.267-0.853,9.387,1.707,10.24,5.973l0,0c1.707,4.267-1.707,9.387-5.973,10.24l0,0
			c-0.853,0-1.707,0-1.707,0l0,0C10.947,323.267,7.533,320.707,6.68,317.293z M495.64,313.88c-4.267-0.853-7.68-5.12-6.827-10.24
			l0,0c0.853-4.267,5.12-7.68,10.24-6.827l0,0c4.267,0.853,7.68,5.12,6.827,10.24l0,0c-0.853,4.267-4.267,6.827-8.533,6.827l0,0
			C496.493,314.733,495.64,314.733,495.64,313.88z M1.56,290.84L1.56,290.84L1.56,290.84c-0.853-4.267,2.56-9.387,7.68-9.387l0,0
			c4.267-0.853,8.533,2.56,9.387,7.68l0,0c0.853,4.267-2.56,8.533-7.68,9.387l0,0h-0.853l0,0
			C5.827,298.52,2.413,295.107,1.56,290.84z M499.907,289.133c-5.12-0.853-8.533-5.12-7.68-9.387l0,0
			c0.853-4.267,4.267-8.533,9.387-7.68l0,0c4.267,0,7.68,4.267,7.68,9.387l0,0l0,0l0,0c0,4.267-4.267,7.68-8.533,7.68l0,0
			C500.76,289.133,500.76,289.133,499.907,289.133z M-1,265.24c0-5.12,3.413-8.533,8.533-8.533l0,0c5.12,0,8.533,3.413,8.533,8.533
			l0,0c0,4.267-3.413,8.533-8.533,8.533l0,0l0,0l0,0C3.267,272.92-1,269.507-1,265.24z M493.933,255L493.933,255
			c0-5.12,4.267-8.533,8.533-8.533l0,0c4.267,0,8.533,3.413,8.533,8.533l0,0l0,0l0,0c0,4.267-4.267,8.533-8.533,8.533l0,0
			C498.2,263.533,493.933,259.267,493.933,255z"/>
	</g>
</g>
<g>
</g>
<g>
</g>
<g>
</g>
<g>
</g>
<g>
</g>
<g>
</g>
<g>
</g>
<g>
</g>
<g>
</g>
<g>
</g>
<g>
</g>
<g>
</g>
<g>
</g>
<g>
</g>
<g>
</g>
</svg>
