<?xml version="1.0" encoding="iso-8859-1"?>
<!-- Generator: Adobe Illustrator 19.0.0, SVG Export Plug-In . SVG Version: 6.00 Build 0)  -->
<svg version="1.1" id="Layer_1" xmlns="http://www.w3.org/2000/svg" xmlns:xlink="http://www.w3.org/1999/xlink" x="0px" y="0px"
	 viewBox="0 0 512 512" style="enable-background:new 0 0 512 512;" xml:space="preserve">
<g transform="translate(1 1)">
	<path style="fill:#FFFFFF;" d="M212.333,238.36c0-5.973,1.707-11.947,3.413-17.067H24.6c-9.387,0-17.067,7.68-17.067,17.067
		s7.68,17.067,17.067,17.067h191.147C214.04,250.307,212.333,244.333,212.333,238.36L212.333,238.36z"/>
	<path style="fill:#0096E6;" d="M229.4,263.96H24.6c-14.507,0-25.6-11.093-25.6-25.6c0-14.507,11.093-25.6,25.6-25.6h204.8
		l-5.12,11.947c-2.56,4.267-3.413,9.387-3.413,13.653s0.853,9.387,2.56,13.653L229.4,263.96z M24.6,229.827
		c-5.12,0-8.533,3.413-8.533,8.533c0,5.12,3.413,8.533,8.533,8.533h180.053c-0.853-2.56-0.853-5.973-0.853-8.533
		s0-5.973,0.853-8.533H24.6z"/>
	<path style="fill:#FFFFFF;" d="M294.253,255.427c-6.827,15.36-21.333,25.6-39.253,25.6s-32.427-10.24-39.253-25.6H33.133
		L111.64,476.44c4.267,11.093,13.653,17.92,25.6,17.92h234.667c11.093,0,21.333-6.827,25.6-17.92l79.36-221.013H294.253
		L294.253,255.427z"/>
	<path style="fill:#0096E6;" d="M372.76,502.893H137.24c-15.36,0-28.16-9.387-33.28-23.893L21.187,246.893H221.72l2.56,5.12
		c5.12,12.8,17.067,20.48,30.72,20.48s25.6-7.68,31.573-20.48l2.56-5.12h200.533L406.893,479
		C400.92,493.507,387.267,502.893,372.76,502.893z M45.08,263.96l75.093,209.92c2.56,7.68,9.387,11.947,17.067,11.947h234.667
		c7.68,0,14.507-5.12,17.067-11.947l75.947-209.92H299.373c-9.387,15.36-25.6,25.6-44.373,25.6s-34.987-10.24-44.373-25.6H45.08z"/>
	<path style="fill:#FFFFFF;" d="M485.4,221.293H295.107l0,0v0.853c0.853,2.56,1.707,4.267,2.56,6.827v0.853
		c0.853,2.56,0.853,5.12,0.853,8.533c0,2.56,0,5.12-0.853,7.68v0.853c-0.853,2.56-0.853,4.267-1.707,6.827
		c0,0.853,0,0.853-0.853,1.707H485.4c9.387,0,17.067-7.68,17.067-17.067S494.787,221.293,485.4,221.293L485.4,221.293z"/>
	<g>
		<path style="fill:#0096E6;" d="M485.4,263.96H281.453l5.12-13.653c0.853-1.707,1.707-3.413,1.707-5.12
			c0.853-2.56,0.853-5.12,0.853-6.827c0-1.707,0-4.267-0.853-6.827s-0.853-4.267-1.707-5.973l-2.56-6.827l6.827-5.973h4.267H485.4
			c14.507,0,25.6,11.093,25.6,25.6C511,252.867,499.907,263.96,485.4,263.96z M305.347,246.893H485.4
			c5.12,0,8.533-3.413,8.533-8.533c0-5.12-3.413-8.533-8.533-8.533H305.347c0.853,2.56,0.853,5.973,0.853,8.533
			S306.2,244.333,305.347,246.893z"/>
		<path style="fill:#0096E6;" d="M340.333,451.693H169.667c-5.12,0-8.533-3.413-8.533-8.533c0-5.12,3.413-8.533,8.533-8.533h170.667
			c5.12,0,8.533,3.413,8.533,8.533C348.867,448.28,345.453,451.693,340.333,451.693z M357.4,409.027H152.6
			c-5.12,0-8.533-3.413-8.533-8.533s3.413-8.533,8.533-8.533h204.8c5.12,0,8.533,3.413,8.533,8.533S362.52,409.027,357.4,409.027z
			 M383,366.36H127c-5.12,0-8.533-3.413-8.533-8.533s3.413-8.533,8.533-8.533h256c5.12,0,8.533,3.413,8.533,8.533
			S388.12,366.36,383,366.36z M408.6,323.693H101.4c-5.12,0-8.533-3.413-8.533-8.533c0-5.12,3.413-8.533,8.533-8.533h307.2
			c5.12,0,8.533,3.413,8.533,8.533C417.133,320.28,413.72,323.693,408.6,323.693z"/>
	</g>
	<path style="fill:#FFFFFF;" d="M215.747,221.293L39.107,44.653c-6.827-6.827-6.827-17.92,0-23.893
		c6.827-6.827,17.92-6.827,23.893,0l177.493,177.493"/>
	<path style="fill:#0096E6;" d="M215.747,229.827c-2.56,0-4.267-0.853-5.973-2.56L33.133,50.627c-10.24-9.387-10.24-25.6,0-35.84
		s26.453-10.24,35.84,0L246.467,192.28c3.413,3.413,3.413,8.533,0,11.947s-8.533,3.413-11.947,0L57.027,26.733
		c-3.413-3.413-8.533-3.413-11.947,0s-3.413,8.533,0,11.947l176.64,176.64c3.413,3.413,3.413,8.533,0,11.947
		C220.013,228.973,218.307,229.827,215.747,229.827z"/>
	<path style="fill:#D0E8F9;" d="M297.667,238.36c0,23.893-18.773,42.667-42.667,42.667s-42.667-18.773-42.667-42.667
		s18.773-42.667,42.667-42.667S297.667,214.467,297.667,238.36L297.667,238.36z"/>
	<path style="fill:#0096E6;" d="M255,289.56c-28.16,0-51.2-23.04-51.2-51.2s23.04-51.2,51.2-51.2s51.2,23.04,51.2,51.2
		S283.16,289.56,255,289.56z M255,204.227c-18.773,0-34.133,15.36-34.133,34.133s15.36,34.133,34.133,34.133
		s34.133-15.36,34.133-34.133S273.773,204.227,255,204.227z"/>
	<path style="fill:#FFFFFF;" d="M294.253,221.293l176.64-176.64c6.827-6.827,6.827-17.92,0-23.893
		c-6.827-6.827-17.92-6.827-23.893,0L269.507,198.253"/>
	<path style="fill:#0096E6;" d="M294.253,229.827c-2.56,0-4.267-0.853-5.973-2.56c-3.413-3.413-3.413-8.533,0-11.947L464.92,38.68
		c3.413-3.413,3.413-8.533,0-11.947c-3.413-3.413-8.533-3.413-11.947,0L275.48,204.227c-3.413,3.413-8.533,3.413-11.947,0
		s-3.413-8.533,0-11.947L441.027,14.787c10.24-10.24,26.453-10.24,35.84,0c10.24,10.24,10.24,26.453,0,35.84L300.227,228.12
		C298.52,228.973,296.813,229.827,294.253,229.827z"/>
</g>
<g>
</g>
<g>
</g>
<g>
</g>
<g>
</g>
<g>
</g>
<g>
</g>
<g>
</g>
<g>
</g>
<g>
</g>
<g>
</g>
<g>
</g>
<g>
</g>
<g>
</g>
<g>
</g>
<g>
</g>
</svg>
